<svg xmlns="http://www.w3.org/2000/svg" version="1.1" xlink="http://www.w3.org/1999/xlink" xmlns:svgjs="http://svgjs.com/svgjs" width="127.24332867302897" height="147"><defs id="SvgjsDefs1260"/><g id="SvgjsG1261" transform="scale(0.8935627013555406)" opacity="1"><g id="SvgjsG1262" class="beSo5uRDv_" transform="translate(27.806297091359845, -3.2617765145276563) scale(0.8765873362955809)" light-content="false" fill="#0a0a0a"><path d="M55.84 90.075c-3.396 0-3.903-3.899-3.903-6.225v-1.054c3.932-3.968 20.696-21.883 20.696-38.825 0-17.545-17.998-36.152-21.074-39.203a2.515 2.515 0 0 0-.645-.628l-.435-.419h-1.003l-.099.002-.879.011-.426.419a2.53 2.53 0 0 0-.627.616C44.37 7.82 26.373 26.43 26.373 43.972c0 16.886 16.656 34.741 20.656 38.784v1.095c0 8.217 4.747 11.133 8.812 11.133a2.454 2.454 0 1 0-.001-4.909zM31.281 43.972c0-13.896 13.299-29.126 18.222-34.288 4.923 5.161 18.222 20.389 18.222 34.288 0 12.005-9.911 24.99-15.788 31.635v-9.419L59.9 59.1a2.455 2.455 0 1 0-3.264-3.667l-4.7 4.184v-5.583l7.964-7.088a2.454 2.454 0 1 0-3.263-3.667l-4.701 4.184v-5.585L59.9 34.79a2.455 2.455 0 0 0-3.263-3.667l-4.701 4.184V25.44a2.454 2.454 0 0 0-4.908 0v50.12c-5.881-6.66-15.747-19.613-15.747-31.588z"/></g><g id="SvgjsG1263" class="text" transform="translate(-1.8599999999999994, 138.25) scale(1)" light-content="false" fill="#0a0a0a"><path d="M1.86 -42.09L1.86 0L13.18 0C16.58 0 19.01 -1.05 20.48 -3.14C21.95 -5.23 22.67 -8.35 22.64 -12.49L22.54 -32.19C22.51 -35.46 21.74 -37.93 20.24 -39.59C18.73 -41.26 16.48 -42.09 13.48 -42.09ZM11.81 -7.45L10.34 -7.45L10.34 -34.74L11.27 -34.74C12.09 -34.74 12.69 -34.66 13.08 -34.5C13.48 -34.33 13.74 -34.01 13.89 -33.54C14.04 -33.07 14.11 -32.36 14.11 -31.41L14.11 -9.7C14.11 -8.2 13.34 -7.45 11.81 -7.45Z M36.48 -2.38C37.51 -0.53 39.41 0.39 42.19 0.39C43.46 0.39 44.57 -0.02 45.5 -0.83C46.43 -1.65 47.11 -2.79 47.53 -4.26L47.53 0L56.06 0L56.06 -27.34C56.06 -30.18 55.13 -32.38 53.26 -33.93C51.4 -35.48 48.98 -36.26 46.01 -36.26C42.29 -36.26 39.6 -35.51 37.95 -34.01C36.3 -32.5 35.48 -29.99 35.48 -26.46L35.48 -25.28L43.81 -25.28L43.81 -27.44C43.81 -28.16 43.98 -28.73 44.32 -29.15C44.66 -29.58 45.06 -29.79 45.52 -29.79C46.04 -29.79 46.49 -29.54 46.87 -29.03C47.24 -28.53 47.43 -27.8 47.43 -26.85L47.43 -23.27L47.43 -23.18L45.08 -22.39C42.4 -21.54 40.41 -20.77 39.1 -20.07C37.8 -19.36 36.77 -18.26 36.04 -16.76C35.3 -15.26 34.94 -13.1 34.94 -10.29C34.94 -6.86 35.45 -4.22 36.48 -2.38ZM46.97 -7.08C46.69 -6.54 46.22 -6.27 45.57 -6.27C44.3 -6.27 43.66 -7.33 43.66 -9.46L43.66 -14.06C43.66 -15.4 43.96 -16.45 44.57 -17.2C45.17 -17.95 46.11 -18.57 47.38 -19.06L47.38 -9.06C47.38 -8.28 47.24 -7.62 46.97 -7.08Z M69.09 -38.27L77.67 -38.27L77.67 -44.25L69.09 -44.25ZM69.09 0L77.67 0L77.67 -35.87L69.09 -35.87Z M90.06 -10.39C90.06 -3.2 93.61 0.39 100.7 0.39C104.09 0.39 106.74 -0.51 108.63 -2.3C110.53 -4.1 111.48 -6.66 111.48 -10C111.48 -12.51 110.97 -14.59 109.96 -16.24C108.94 -17.89 107.49 -19.42 105.6 -20.82L100.3 -24.7C99.29 -25.41 98.78 -26.43 98.78 -27.73C98.78 -28.32 98.94 -28.79 99.25 -29.13C99.56 -29.47 100.01 -29.64 100.6 -29.64C101.25 -29.64 101.72 -29.34 101.99 -28.74C102.27 -28.13 102.41 -27.41 102.41 -26.56L102.41 -25.19L111.28 -25.19L111.28 -25.87C111.28 -32.8 107.8 -36.26 100.84 -36.26C98.88 -36.26 97.1 -35.93 95.5 -35.28C93.9 -34.63 92.62 -33.65 91.65 -32.36C90.69 -31.07 90.21 -29.51 90.21 -27.68C90.21 -25.33 90.55 -23.51 91.24 -22.22C91.92 -20.93 93.05 -19.68 94.62 -18.47L99.18 -14.94C100.35 -14.06 101.21 -13.23 101.75 -12.45C102.29 -11.66 102.56 -10.58 102.56 -9.21C102.56 -7.35 101.99 -6.42 100.84 -6.42C100.09 -6.42 99.55 -6.64 99.23 -7.08C98.9 -7.52 98.74 -8.17 98.74 -9.02L98.69 -13.23L90.11 -13.23Z M123.24 0.54L123.24 5.98L132.89 5.98C134.39 5.98 135.49 5.64 136.2 4.97C136.9 4.3 137.36 3.27 137.59 1.86L144.26 -35.87L136.02 -35.87L134.11 -18.37L133.18 -9.46L132.4 -18.37L130.78 -35.87L122.6 -35.87L128.18 -0.73C128.22 -0.6 128.23 -0.42 128.23 -0.2C128.23 0.29 127.94 0.54 127.35 0.54Z"/></g><g id="SvgjsG1264" class="text" transform="translate(0.6899999999999977, 164.37) scale(1)" light-content="false" fill="#0a0a0a"><path d="M8.78 -9.99L7.32 -3.11C7.19 -2.5 7.06 -1.72 6.93 -0.76L6.86 -1.26C6.8 -1.75 6.69 -2.36 6.55 -3.11L5.15 -9.99L4.4 -9.99L2.99 -3.08C2.83 -2.26 2.7 -1.49 2.6 -0.76C2.54 -1.21 2.4 -1.99 2.18 -3.11L0.77 -9.99L0.07 -9.99L2.21 0L3.01 0L4.5 -7.49L4.66 -8.46L4.76 -9.11C4.89 -8.15 4.97 -7.6 5 -7.48L6.52 0L7.33 0L9.46 -9.99Z M17.05 0L17.05 -0.64L14.1 -0.64L14.1 -4.92L16.89 -4.92L16.89 -5.56L14.1 -5.56L14.1 -9.35L17.05 -9.35L17.05 -9.99L13.43 -9.99L13.43 0Z M26.57 -5.09C26.57 -6.7 26.31 -7.91 25.78 -8.75C25.25 -9.58 24.46 -9.99 23.43 -9.99L21.62 -9.99L21.62 0L23.39 0C25.51 0 26.57 -1.7 26.57 -5.09ZM25.87 -5.05C25.87 -3.61 25.67 -2.51 25.26 -1.75C24.85 -0.99 24.22 -0.62 23.35 -0.62L22.29 -0.62L22.29 -9.38L23.41 -9.38C24.22 -9.38 24.83 -9.01 25.25 -8.27C25.66 -7.53 25.87 -6.46 25.87 -5.05Z M36.17 -5.09C36.17 -6.7 35.91 -7.91 35.38 -8.75C34.85 -9.58 34.07 -9.99 33.04 -9.99L31.22 -9.99L31.22 0L33 0C35.11 0 36.17 -1.7 36.17 -5.09ZM35.47 -5.05C35.47 -3.61 35.27 -2.51 34.86 -1.75C34.46 -0.99 33.82 -0.62 32.95 -0.62L31.89 -0.62L31.89 -9.38L33.01 -9.38C33.82 -9.38 34.43 -9.01 34.85 -8.27C35.26 -7.53 35.47 -6.46 35.47 -5.05Z M40.82 0L41.49 0L41.49 -9.99L40.82 -9.99Z M51.74 0L51.74 -9.99L51.08 -9.99L51.08 -3.01C51.08 -2.51 51.1 -1.88 51.14 -1.13L51.1 -1.13L47.35 -9.99L46.48 -9.99L46.48 0L47.13 0L47.13 -7.17C47.13 -7.75 47.11 -8.34 47.05 -8.96L47.11 -8.96L50.89 0Z M60.02 -5.04L60.02 -4.4L61.53 -4.4L61.53 -0.76C61.08 -0.59 60.53 -0.51 59.89 -0.51C59.01 -0.51 58.32 -0.9 57.83 -1.69C57.35 -2.47 57.1 -3.58 57.1 -5.01C57.1 -6.47 57.35 -7.59 57.83 -8.36C58.31 -9.12 59.01 -9.51 59.95 -9.51C60.53 -9.51 61.14 -9.31 61.77 -8.91L62.09 -9.5C61.42 -9.92 60.7 -10.14 59.95 -10.14C58.82 -10.14 57.95 -9.69 57.33 -8.8C56.7 -7.9 56.39 -6.65 56.39 -5.02C56.39 -3.41 56.69 -2.14 57.3 -1.23C57.9 -0.32 58.74 0.14 59.83 0.14C60.65 0.14 61.44 -0.01 62.2 -0.31L62.2 -5.04Z M70.71 -2.62C70.71 -3.25 70.56 -3.78 70.24 -4.22C69.93 -4.66 69.44 -5.04 68.76 -5.37C68.11 -5.71 67.67 -6.03 67.45 -6.34C67.23 -6.65 67.12 -7.08 67.12 -7.64C67.12 -8.19 67.27 -8.64 67.58 -8.97C67.89 -9.31 68.29 -9.47 68.78 -9.47C69.3 -9.47 69.82 -9.34 70.32 -9.08L70.58 -9.73C70.4 -9.83 70.15 -9.92 69.83 -10.01C69.52 -10.09 69.17 -10.14 68.78 -10.14C68.35 -10.14 67.96 -10.03 67.6 -9.82C67.24 -9.61 66.95 -9.31 66.75 -8.93C66.55 -8.54 66.45 -8.11 66.45 -7.62C66.45 -7.16 66.52 -6.78 66.64 -6.45C66.76 -6.13 66.95 -5.85 67.21 -5.6C67.46 -5.36 67.85 -5.11 68.36 -4.85C69.02 -4.52 69.46 -4.2 69.69 -3.88C69.93 -3.55 70.04 -3.11 70.04 -2.56C70.04 -1.97 69.88 -1.47 69.55 -1.09C69.22 -0.7 68.8 -0.51 68.29 -0.51C67.95 -0.51 67.6 -0.54 67.25 -0.62C66.9 -0.7 66.61 -0.8 66.37 -0.94L66.37 -0.21C66.85 0.02 67.49 0.14 68.29 0.14C68.99 0.14 69.57 -0.12 70.03 -0.63C70.48 -1.13 70.71 -1.8 70.71 -2.62Z M84.52 0L85.26 0L84.19 -1.78C84.38 -2.1 84.53 -2.51 84.67 -3.01C84.8 -3.52 84.86 -3.98 84.86 -4.41L84.22 -4.41C84.22 -3.61 84.09 -2.94 83.83 -2.41L82.22 -5.29C82.62 -5.69 82.91 -6.11 83.08 -6.56C83.25 -7 83.34 -7.53 83.34 -8.16C83.34 -8.79 83.22 -9.28 82.98 -9.62C82.75 -9.97 82.42 -10.14 82.01 -10.14C81.6 -10.14 81.27 -9.97 81.04 -9.64C80.8 -9.3 80.68 -8.83 80.68 -8.23C80.68 -7.74 80.73 -7.3 80.83 -6.91C80.94 -6.51 81.16 -6.01 81.49 -5.39C81.09 -5.04 80.79 -4.72 80.59 -4.45C80.4 -4.17 80.25 -3.87 80.15 -3.54C80.05 -3.22 80 -2.85 80 -2.43C80 -1.62 80.16 -0.99 80.48 -0.54C80.79 -0.09 81.23 0.14 81.79 0.14C82.2 0.14 82.56 0.04 82.87 -0.16C83.19 -0.36 83.51 -0.72 83.85 -1.22ZM80.65 -2.42C80.65 -2.95 80.73 -3.39 80.89 -3.76C81.05 -4.12 81.34 -4.5 81.77 -4.9L83.51 -1.79C83.26 -1.35 83.01 -1.03 82.74 -0.82C82.47 -0.61 82.17 -0.51 81.84 -0.51C81.48 -0.51 81.19 -0.67 80.98 -1C80.76 -1.33 80.65 -1.8 80.65 -2.42ZM82.7 -8.16C82.7 -7.68 82.64 -7.24 82.53 -6.85C82.42 -6.46 82.22 -6.11 81.92 -5.81C81.75 -6.11 81.6 -6.47 81.49 -6.91C81.38 -7.35 81.32 -7.77 81.32 -8.16C81.32 -8.6 81.38 -8.94 81.49 -9.17C81.61 -9.41 81.77 -9.52 81.98 -9.52C82.46 -9.52 82.7 -9.07 82.7 -8.16Z M98.2 0L98.2 -0.64L95.24 -0.64L95.24 -4.92L98.03 -4.92L98.03 -5.56L95.24 -5.56L95.24 -9.35L98.2 -9.35L98.2 -9.99L94.57 -9.99L94.57 0Z M106.44 -9.99C105.25 -5.01 104.64 -2.43 104.6 -2.25C104.56 -2.08 104.52 -1.86 104.48 -1.61C104.44 -1.35 104.4 -1.09 104.37 -0.83C104.32 -1.21 104.28 -1.53 104.24 -1.78C104.2 -2.03 104.12 -2.43 103.99 -2.97L102.36 -9.99L101.67 -9.99L104.02 0L104.76 0L107.13 -9.99Z M114.64 0L114.64 -0.64L111.69 -0.64L111.69 -4.92L114.48 -4.92L114.48 -5.56L111.69 -5.56L111.69 -9.35L114.64 -9.35L114.64 -9.99L111.02 -9.99L111.02 0Z M124.47 0L124.47 -9.99L123.82 -9.99L123.82 -3.01C123.82 -2.51 123.83 -1.88 123.87 -1.13L123.83 -1.13L120.08 -9.99L119.21 -9.99L119.21 0L119.86 0L119.86 -7.17C119.86 -7.75 119.84 -8.34 119.78 -8.96L119.84 -8.96L123.62 0Z M131.12 0L131.12 -9.35L133.11 -9.35L133.11 -9.99L128.46 -9.99L128.46 -9.35L130.45 -9.35L130.45 0Z M140.95 -2.62C140.95 -3.25 140.8 -3.78 140.49 -4.22C140.17 -4.66 139.68 -5.04 139.01 -5.37C138.35 -5.71 137.92 -6.03 137.69 -6.34C137.47 -6.65 137.36 -7.08 137.36 -7.64C137.36 -8.19 137.51 -8.64 137.82 -8.97C138.13 -9.31 138.53 -9.47 139.02 -9.47C139.54 -9.47 140.06 -9.34 140.56 -9.08L140.82 -9.73C140.64 -9.83 140.39 -9.92 140.08 -10.01C139.76 -10.09 139.41 -10.14 139.02 -10.14C138.59 -10.14 138.2 -10.03 137.84 -9.82C137.48 -9.61 137.2 -9.31 137 -8.93C136.8 -8.54 136.7 -8.11 136.7 -7.62C136.7 -7.16 136.76 -6.78 136.88 -6.45C137 -6.13 137.19 -5.85 137.45 -5.6C137.7 -5.36 138.09 -5.11 138.6 -4.85C139.26 -4.52 139.7 -4.2 139.94 -3.88C140.17 -3.55 140.28 -3.11 140.28 -2.56C140.28 -1.97 140.12 -1.47 139.79 -1.09C139.46 -0.7 139.04 -0.51 138.53 -0.51C138.19 -0.51 137.85 -0.54 137.5 -0.62C137.14 -0.7 136.85 -0.8 136.61 -0.94L136.61 -0.21C137.1 0.02 137.74 0.14 138.53 0.14C139.24 0.14 139.81 -0.12 140.27 -0.63C140.73 -1.13 140.95 -1.8 140.95 -2.62Z"/></g></g></svg>