<svg xmlns="http://www.w3.org/2000/svg" version="1.1" xlink="http://www.w3.org/1999/xlink" xmlns:svgjs="http://svgjs.com/svgjs" width="180.69112309414436" height="147"><defs id="SvgjsDefs1074"/><g id="SvgjsG1075" transform="scale(0.515970515970516)" opacity="1"><g id="SvgjsG1076" class="9mMWH5ywR" transform="translate(0, 0) scale(1)" light-content="false" fill="#333333"><path d="M0 0 h 350.1966052348416 v 8 h -350.1966052348416 Z M0 0 h 8 v 156.695 h -8 ZM0 284.9 h 8 v 0 h -8 Z M350.1966052348416 284.9 h -52.52949078522625 v -8 h 52.52949078522625 ZM0 284.9 h -0 v -8 h 0 Z M350.1966052348416 284.9 h -8 v -284.9 h 8 Z" fill-rule="nonzero"/></g><g id="SvgjsG1077" class="text" transform="translate(139.34, 284.89785273039723) scale(1)" light-content="false" fill="#333333"><path d="M-99.56 -15.91L-107.24 -46.31L-115.54 -46.31C-116.49 -42.41 -117.43 -38.57 -118.36 -34.78C-119.29 -31 -120.21 -27.18 -121.12 -23.33L-122.95 -15.91L-123.36 -15.91L-131.05 -46.31L-139.34 -46.31L-127.58 0L-118.67 0L-111.32 -29.79L-103.71 0L-94.87 0L-83.44 -46.31L-91.74 -46.31C-93.01 -41.1 -94.25 -36.01 -95.48 -31.04C-96.7 -26.08 -97.9 -21.04 -99.08 -15.91Z M-51.14 -7.07L-49.51 0L-41.35 0L-52.77 -46.31L-61.61 -46.31L-73.51 0L-65.28 0L-63.58 -7.07ZM-61.95 -13.94L-57.46 -32.85L-56.99 -32.85L-52.7 -13.94Z M-21.63 -7.82L-21.63 -46.31L-29.79 -46.31L-29.79 0L3.47 0L3.47 -7.82Z M22.71 -7.82L22.71 -46.31L14.55 -46.31L14.55 0L47.81 0L47.81 -7.82Z M68.75 -7.82L68.75 -19.31L91.81 -19.31L91.81 -27.07L68.75 -27.07L68.75 -38.49L91.81 -38.49L91.81 -46.31L59.98 -46.31L59.98 0L91.81 0L91.81 -7.82Z M114.18 -18.7L128.94 0L138.8 0L123.09 -19.18L125.4 -19.18C127.17 -19.18 128.82 -19.49 130.37 -20.13C131.91 -20.76 133.23 -21.66 134.34 -22.82C135.45 -23.97 136.34 -25.31 137 -26.83C137.65 -28.35 137.98 -29.97 137.98 -31.69L137.98 -33.73C137.98 -35.45 137.65 -37.09 137 -38.63C136.34 -40.17 135.45 -41.51 134.34 -42.64C133.23 -43.77 131.91 -44.67 130.37 -45.33C128.82 -45.98 127.17 -46.31 125.4 -46.31L105.54 -46.31L105.54 0L114.18 0ZM114.18 -38.22L124.04 -38.22C125.99 -38.22 127.42 -37.71 128.33 -36.69C129.23 -35.67 129.69 -34.34 129.69 -32.71C129.69 -30.99 129.23 -29.65 128.33 -28.7C127.42 -27.75 125.99 -27.27 124.04 -27.27L114.18 -27.27Z"/></g><g id="SvgjsG1078" class="text" transform="translate(139.78, 227.2240912940219) scale(1)" light-content="false" fill="#333333"><path d="M-105.6 -15.63L-105.6 -53.75L-115.39 -53.75L-115.39 -16.18C-115.39 -15.23 -115.55 -14.35 -115.86 -13.54C-116.18 -12.72 -116.61 -12 -117.17 -11.37C-117.72 -10.73 -118.36 -10.23 -119.1 -9.87C-119.84 -9.5 -120.68 -9.31 -121.63 -9.31L-124.94 -9.31C-126.41 -9.31 -127.56 -9.77 -128.37 -10.69C-129.19 -11.62 -129.76 -12.73 -130.07 -14.05L-139.78 -14.05C-139.62 -12.1 -139.15 -10.27 -138.36 -8.56C-137.57 -6.85 -136.52 -5.37 -135.2 -4.1C-133.89 -2.84 -132.37 -1.84 -130.66 -1.1C-128.95 -0.37 -127.07 0 -125.02 0L-121.15 0C-119.05 0 -117.05 -0.41 -115.15 -1.22C-113.26 -2.04 -111.6 -3.16 -110.18 -4.58C-108.76 -6 -107.64 -7.66 -106.83 -9.55C-106.01 -11.44 -105.6 -13.47 -105.6 -15.63Z M-59.35 -8.21L-57.46 0L-47.99 0L-61.25 -53.75L-71.51 -53.75L-85.32 0L-75.77 0L-73.8 -8.21ZM-71.9 -16.18L-66.69 -38.12L-66.14 -38.12L-61.17 -16.18Z M-5.52 -14.92L-14.13 -53.67L-25.41 -53.67L-25.41 0L-17.6 0L-17.6 -34.81L-17.05 -34.81L-9.71 0.08L-1.1 0C0.11 -5.79 1.39 -11.59 2.76 -17.4C4.13 -23.22 5.45 -29.05 6.71 -34.89L7.18 -34.89L7.18 0L14.92 0L14.92 -53.67L3.63 -53.67C2.21 -47.2 0.78 -40.74 -0.67 -34.29C-2.12 -27.85 -3.55 -21.39 -4.97 -14.92Z M48.3 -9.08L48.3 -22.42L75.06 -22.42L75.06 -31.41L48.3 -31.41L48.3 -44.67L75.06 -44.67L75.06 -53.75L38.12 -53.75L38.12 0L75.06 0L75.06 -9.08Z M122.81 -33.31L113.1 -33.31C111.58 -33.31 110.37 -33.77 109.47 -34.69C108.58 -35.61 108.13 -36.73 108.13 -38.04C108.13 -39.2 108.31 -40.12 108.68 -40.81C109.05 -41.49 109.58 -42 110.26 -42.34C110.94 -42.69 111.73 -42.92 112.63 -43.05C113.52 -43.19 114.5 -43.25 115.55 -43.25L133.62 -43.25L133.62 -53.75L111.44 -53.75C109.34 -53.75 107.42 -53.33 105.68 -52.49C103.95 -51.64 102.47 -50.53 101.26 -49.13C100.05 -47.74 99.11 -46.12 98.42 -44.28C97.74 -42.44 97.4 -40.54 97.4 -38.6C97.4 -35.81 97.82 -33.41 98.66 -31.41C99.5 -29.41 100.68 -27.78 102.21 -26.52C103.74 -25.26 105.6 -24.34 107.81 -23.76C110.02 -23.18 112.47 -22.89 115.15 -22.89L121.55 -22.89C123.55 -22.89 125.22 -22.31 126.56 -21.15C127.9 -19.99 128.57 -18.39 128.57 -16.34C128.57 -15.23 128.36 -14.29 127.94 -13.5C127.52 -12.71 126.97 -12.05 126.28 -11.52C125.6 -11 124.77 -10.6 123.8 -10.34C122.82 -10.08 121.81 -9.94 120.76 -9.94L99.13 -9.94L99.13 0L123.6 0C125.81 0 127.81 -0.42 129.6 -1.26C131.39 -2.1 132.94 -3.25 134.25 -4.7C135.57 -6.14 136.58 -7.87 137.29 -9.87C138 -11.87 138.36 -14.02 138.36 -16.34C138.36 -18.81 137.98 -21.09 137.21 -23.17C136.45 -25.24 135.37 -27.03 133.98 -28.53C132.58 -30.03 130.93 -31.2 129.01 -32.04C127.09 -32.89 125.02 -33.31 122.81 -33.31Z"/></g></g></svg>