<svg xmlns="http://www.w3.org/2000/svg" version="1.1" xlink="http://www.w3.org/1999/xlink" xmlns:svgjs="http://svgjs.com/svgjs" width="264.4700515227048" height="147"><defs id="SvgjsDefs1499"/><g id="SvgjsG1500" transform="scale(1.3923873408587175)" opacity="1"><g id="SvgjsG1501" class="6wCFNYegAa" transform="translate(70.55796449401008, 0) scale(0.4882407101197983)" light-content="false" fill="#303030"><path d="M0 0v100h100V0H0zm98 98H2V2h96v96z" fill-rule="evenodd"/></g><g id="SvgjsG1502" class="text" transform="translate(78.67999999999999, 30.432035505989916) scale(1)" light-content="false" fill="#303030"><path d="M14.6 3.54C14.6 3.38 14.54 3.25 14.42 3.17C14.31 3.08 14.17 3.01 14.01 2.95C13.85 2.9 13.69 2.84 13.54 2.79C13.38 2.73 13.27 2.66 13.19 2.56C13.19 2.45 13.18 2.36 13.15 2.28C13.11 2.21 13.07 2.14 13.03 2.08C12.98 2.03 12.94 1.96 12.89 1.9C12.85 1.84 12.82 1.76 12.8 1.67C12.83 1.63 12.85 1.58 12.85 1.5C12.85 1.47 12.85 1.44 12.84 1.42C12.72 1.3 12.64 1.16 12.6 0.98C12.56 0.8 12.53 0.62 12.51 0.42L12.46 -0.15C12.44 -0.34 12.4 -0.52 12.35 -0.68C12.46 -1.03 12.5 -1.39 12.48 -1.76C12.46 -2.13 12.47 -2.49 12.5 -2.84C12.52 -3.11 12.57 -3.37 12.63 -3.62C12.7 -3.87 12.76 -4.11 12.84 -4.35C12.8 -4.38 12.78 -4.43 12.78 -4.5C12.78 -4.54 12.79 -4.58 12.79 -4.61C12.79 -4.65 12.8 -4.68 12.8 -4.73L12.8 -4.8C12.92 -5.18 12.99 -5.56 12.99 -5.92L12.99 -6.07C13.04 -6.18 13.08 -6.3 13.1 -6.44L13.17 -6.86C13.19 -7.01 13.22 -7.15 13.25 -7.27C13.28 -7.4 13.32 -7.51 13.38 -7.6C13.34 -7.63 13.31 -7.67 13.3 -7.73C13.29 -7.79 13.29 -7.85 13.29 -7.9C13.29 -7.96 13.3 -8.02 13.32 -8.1C13.33 -8.18 13.35 -8.25 13.37 -8.31L13.49 -9.09C13.56 -9.48 13.61 -9.88 13.64 -10.27C13.67 -10.66 13.7 -11.06 13.73 -11.47C13.82 -11.62 13.88 -11.77 13.92 -11.94C13.95 -12.1 13.99 -12.27 14.01 -12.44C14.04 -12.61 14.07 -12.79 14.1 -12.95C14.13 -13.12 14.19 -13.28 14.26 -13.43C14.25 -13.65 14.26 -13.88 14.3 -14.1C14.34 -14.33 14.36 -14.54 14.36 -14.75C14.36 -14.91 14.34 -15.06 14.31 -15.21C14.29 -15.36 14.24 -15.5 14.16 -15.64C14.05 -15.62 13.97 -15.63 13.9 -15.67C13.83 -15.72 13.77 -15.77 13.71 -15.84C13.65 -15.91 13.59 -15.97 13.52 -16.04C13.46 -16.1 13.38 -16.15 13.29 -16.17C13.14 -16.14 13.03 -16.06 12.96 -15.95C12.89 -15.83 12.85 -15.71 12.85 -15.59C12.85 -15.49 12.87 -15.4 12.89 -15.34C12.87 -15.28 12.85 -15.21 12.83 -15.16C12.81 -15.1 12.8 -15.03 12.8 -14.96C12.8 -14.9 12.81 -14.85 12.84 -14.79C12.76 -14.75 12.7 -14.67 12.65 -14.57C12.6 -14.46 12.57 -14.36 12.55 -14.26C12.45 -13.91 12.37 -13.56 12.3 -13.19C12.23 -12.83 12.11 -12.48 11.95 -12.15L11.95 -11.81C11.79 -11.57 11.68 -11.31 11.6 -11.03C11.52 -10.76 11.44 -10.48 11.35 -10.2C11.32 -10.1 11.29 -10.01 11.25 -9.93C11.22 -9.84 11.17 -9.76 11.13 -9.67C11.11 -9.59 11.1 -9.55 11.1 -9.54C11.1 -9.52 11.11 -9.49 11.12 -9.45C11.12 -9.42 11.13 -9.39 11.13 -9.37C10.93 -9.02 10.74 -8.68 10.55 -8.34C10.37 -8 10.22 -7.64 10.09 -7.25C9.99 -7.18 9.91 -7.1 9.85 -7C9.79 -6.9 9.74 -6.79 9.69 -6.68C9.65 -6.56 9.6 -6.45 9.54 -6.34C9.49 -6.23 9.41 -6.14 9.31 -6.07C9.31 -6.01 9.29 -5.95 9.26 -5.9C9.23 -5.85 9.21 -5.79 9.21 -5.71L9.21 -5.69C9.11 -5.66 9.02 -5.61 8.96 -5.52C8.89 -5.44 8.83 -5.35 8.76 -5.26C8.7 -5.17 8.63 -5.09 8.57 -5.02C8.5 -4.96 8.4 -4.92 8.29 -4.92C8.18 -4.92 8.08 -4.95 8 -5C7.96 -5.04 7.94 -5.1 7.94 -5.2L7.94 -5.29C7.83 -5.27 7.75 -5.28 7.7 -5.32C7.65 -5.35 7.59 -5.38 7.51 -5.39C7.2 -5.84 6.93 -6.32 6.71 -6.81C6.49 -7.3 6.32 -7.81 6.18 -8.33C6.11 -8.42 6.04 -8.5 5.97 -8.57C5.91 -8.63 5.86 -8.72 5.82 -8.82C5.84 -8.87 5.86 -8.91 5.89 -8.93C5.91 -8.96 5.92 -9.01 5.92 -9.08C5.92 -9.16 5.9 -9.26 5.86 -9.39C5.82 -9.52 5.77 -9.66 5.71 -9.81C5.66 -9.96 5.61 -10.12 5.56 -10.28C5.52 -10.45 5.49 -10.61 5.48 -10.77C5.42 -10.86 5.37 -10.99 5.33 -11.15C5.3 -11.31 5.27 -11.48 5.25 -11.66C5.23 -11.83 5.21 -12.01 5.2 -12.17C5.18 -12.34 5.16 -12.49 5.14 -12.61C5.06 -12.72 4.99 -12.86 4.95 -13C4.9 -13.15 4.87 -13.29 4.84 -13.43C4.7 -13.51 4.56 -13.55 4.4 -13.54C4.24 -13.54 4.08 -13.56 3.92 -13.62C3.9 -13.57 3.84 -13.54 3.76 -13.51C3.68 -13.48 3.61 -13.47 3.55 -13.47C3.44 -13.47 3.36 -13.52 3.34 -13.62C3.19 -13.55 3.07 -13.46 2.99 -13.35C2.9 -13.24 2.82 -13.12 2.75 -12.99C2.76 -12.94 2.78 -12.91 2.8 -12.89C2.83 -12.86 2.86 -12.83 2.88 -12.8C2.87 -12.58 2.86 -12.36 2.86 -12.14C2.87 -11.92 2.86 -11.71 2.84 -11.5C2.83 -11.43 2.83 -11.35 2.82 -11.29C2.82 -11.22 2.81 -11.15 2.79 -11.09L2.76 -11.01C2.75 -10.98 2.75 -10.96 2.75 -10.94C2.73 -10.9 2.73 -10.86 2.73 -10.82C2.74 -10.78 2.75 -10.74 2.75 -10.71C2.75 -10.65 2.75 -10.59 2.75 -10.53C2.76 -10.46 2.77 -10.4 2.79 -10.35C2.73 -10.13 2.68 -9.9 2.67 -9.66C2.65 -9.42 2.63 -9.18 2.6 -8.94C2.58 -8.7 2.55 -8.47 2.5 -8.24C2.44 -8.02 2.37 -7.8 2.26 -7.6C2.32 -7.57 2.35 -7.53 2.35 -7.46C2.35 -7.42 2.34 -7.38 2.33 -7.33C2.32 -7.29 2.31 -7.25 2.31 -7.21C2.31 -7.17 2.32 -7.13 2.35 -7.1C2.32 -7.08 2.3 -7.06 2.29 -7.03C2.28 -7.01 2.25 -7 2.21 -7C2.19 -7 2.17 -7 2.16 -7.01C2.19 -6.96 2.2 -6.9 2.2 -6.84C2.2 -6.75 2.18 -6.67 2.13 -6.58C2.09 -6.5 2.06 -6.44 2.06 -6.41L2.06 -6.37C2.06 -6.12 2.04 -5.86 1.98 -5.61C1.93 -5.36 1.88 -5.11 1.83 -4.87C1.81 -4.74 1.8 -4.61 1.8 -4.49C1.79 -4.37 1.78 -4.24 1.76 -4.12C1.75 -4.04 1.72 -4.01 1.66 -4.01C1.6 -4.02 1.57 -3.99 1.57 -3.92L1.57 -3.71C1.57 -3.54 1.55 -3.38 1.52 -3.21C1.48 -3.05 1.44 -2.89 1.39 -2.73C1.35 -2.58 1.31 -2.42 1.27 -2.26C1.24 -2.09 1.22 -1.93 1.22 -1.76L1.22 -1.67C1.17 -1.62 1.15 -1.56 1.15 -1.49C1.15 -1.42 1.13 -1.36 1.08 -1.31C1.06 -1.01 1.03 -0.71 0.98 -0.42C0.94 -0.12 0.92 0.18 0.92 0.48C0.92 0.54 0.92 0.6 0.92 0.66C0.93 0.71 0.93 0.77 0.93 0.83C0.93 0.92 0.95 0.96 0.98 0.97C1.02 0.98 1.04 1.01 1.04 1.05C1.04 1.09 1.03 1.12 1.03 1.16C1.02 1.19 1.01 1.22 1.01 1.26C1.01 1.41 1.03 1.56 1.07 1.7C1.11 1.84 1.16 1.98 1.22 2.12C1.28 2.26 1.34 2.39 1.41 2.53C1.47 2.67 1.53 2.81 1.57 2.95L1.79 2.95C2.16 2.95 2.44 2.88 2.65 2.73C2.86 2.59 3.06 2.37 3.24 2.06C3.22 1.98 3.2 1.91 3.17 1.84C3.13 1.77 3.12 1.7 3.12 1.61C3.12 1.56 3.12 1.51 3.13 1.48C3.03 1.49 2.96 1.45 2.93 1.38C2.9 1.31 2.88 1.23 2.88 1.13L2.88 1.08L2.54 1.08C2.46 0.87 2.39 0.68 2.32 0.51C2.26 0.34 2.22 0.14 2.2 -0.1C2.29 -0.17 2.35 -0.25 2.37 -0.35C2.38 -0.44 2.39 -0.55 2.39 -0.66C2.39 -0.72 2.39 -0.79 2.39 -0.87C2.38 -0.95 2.38 -1.02 2.39 -1.08C2.41 -1.15 2.44 -1.22 2.5 -1.27C2.55 -1.33 2.57 -1.39 2.58 -1.48C2.6 -1.62 2.62 -1.77 2.64 -1.91C2.66 -2.05 2.68 -2.19 2.71 -2.34C2.75 -2.6 2.81 -2.86 2.87 -3.11C2.93 -3.36 2.99 -3.61 3.04 -3.87C3.07 -4.04 3.09 -4.22 3.1 -4.42C3.11 -4.61 3.19 -4.77 3.34 -4.89C3.34 -4.91 3.33 -4.94 3.33 -4.97C3.32 -5 3.32 -5.03 3.32 -5.04C3.32 -5.36 3.36 -5.68 3.43 -5.98C3.5 -6.29 3.57 -6.59 3.62 -6.89C3.66 -7.09 3.69 -7.3 3.71 -7.52C3.71 -7.56 3.72 -7.61 3.71 -7.66C3.71 -7.7 3.71 -7.75 3.72 -7.79C3.73 -7.85 3.76 -7.88 3.81 -7.9C3.86 -7.92 3.9 -7.95 3.92 -8C3.91 -8.07 3.9 -8.14 3.9 -8.22L3.9 -8.45C3.9 -8.7 3.91 -8.94 3.95 -9.18C3.99 -9.42 4.04 -9.66 4.12 -9.9C4.22 -9.58 4.33 -9.25 4.45 -8.91C4.57 -8.57 4.64 -8.23 4.65 -7.9C4.69 -7.89 4.73 -7.87 4.75 -7.83C4.77 -7.79 4.79 -7.74 4.79 -7.69C4.8 -7.64 4.8 -7.59 4.8 -7.53L4.8 -7.41C4.89 -7.33 4.95 -7.23 4.99 -7.12C5.03 -7.01 5.08 -6.91 5.14 -6.81C5.13 -6.74 5.14 -6.67 5.16 -6.61C5.18 -6.55 5.2 -6.49 5.2 -6.41L5.2 -6.32C5.2 -6.25 5.22 -6.23 5.27 -6.23C5.32 -6.24 5.35 -6.22 5.35 -6.17C5.35 -6.15 5.34 -6.13 5.33 -6.11C5.38 -5.87 5.44 -5.66 5.53 -5.47C5.62 -5.28 5.72 -5.1 5.83 -4.93C5.94 -4.76 6.06 -4.59 6.19 -4.42C6.31 -4.24 6.43 -4.06 6.56 -3.87C6.75 -3.85 6.9 -3.79 6.99 -3.68C7.09 -3.58 7.21 -3.48 7.36 -3.38C7.49 -3.37 7.63 -3.32 7.76 -3.22C7.89 -3.12 8 -3.08 8.09 -3.08C8.13 -3.08 8.21 -3.11 8.32 -3.18C8.43 -3.25 8.55 -3.28 8.67 -3.28C8.73 -3.28 8.8 -3.27 8.87 -3.24C9.27 -3.48 9.6 -3.79 9.85 -4.18C10.1 -4.58 10.33 -4.98 10.54 -5.39C10.59 -5.37 10.62 -5.38 10.63 -5.43C10.64 -5.47 10.67 -5.5 10.71 -5.5C10.72 -5.5 10.74 -5.49 10.75 -5.49C10.76 -5.48 10.76 -5.48 10.77 -5.48C10.77 -5.59 10.8 -5.69 10.85 -5.78C10.9 -5.87 10.93 -5.97 10.94 -6.07C11.05 -6.18 11.14 -6.31 11.2 -6.45C11.27 -6.59 11.34 -6.73 11.4 -6.88C11.45 -7.02 11.52 -7.17 11.59 -7.31C11.66 -7.46 11.74 -7.59 11.85 -7.7C11.86 -7.62 11.84 -7.57 11.79 -7.55C11.74 -7.52 11.72 -7.48 11.72 -7.44C11.72 -7.42 11.72 -7.41 11.73 -7.4C11.74 -7.39 11.75 -7.37 11.76 -7.36C11.71 -6.93 11.66 -6.51 11.61 -6.09C11.56 -5.68 11.48 -5.26 11.36 -4.84C11.4 -4.77 11.42 -4.68 11.42 -4.57C11.42 -4.41 11.4 -4.26 11.35 -4.11C11.31 -3.96 11.27 -3.81 11.22 -3.66C11.23 -3.62 11.24 -3.57 11.25 -3.53C11.25 -3.48 11.25 -3.44 11.25 -3.39C11.25 -3.19 11.23 -2.99 11.18 -2.8C11.13 -2.61 11.1 -2.42 11.1 -2.21C11.1 -2.07 11.12 -1.92 11.17 -1.76C11.12 -1.72 11.09 -1.64 11.1 -1.54C11.11 -1.43 11.09 -1.36 11.03 -1.31C11.07 -1.19 11.09 -1.04 11.09 -0.86C11.09 -0.78 11.08 -0.69 11.07 -0.59C11.05 -0.5 11.02 -0.41 10.98 -0.34C11.02 -0.33 11.05 -0.31 11.07 -0.27C11.08 -0.23 11.09 -0.19 11.09 -0.15C11.09 -0.1 11.08 -0.05 11.07 0C11.07 0.05 11.05 0.1 11.03 0.15C11.1 0.63 11.19 1.11 11.32 1.57C11.45 2.04 11.59 2.5 11.76 2.95C11.87 3.02 11.96 3.09 12.03 3.19C12.1 3.28 12.18 3.37 12.25 3.47C12.32 3.56 12.4 3.65 12.48 3.74C12.56 3.83 12.67 3.89 12.8 3.94C12.88 3.9 12.99 3.88 13.14 3.88L13.23 3.88C13.32 3.96 13.41 4 13.51 4.02C13.62 4.04 13.72 4.07 13.82 4.13C13.89 4.1 13.96 4.07 14.05 4.03C14.13 4 14.22 3.96 14.3 3.92C14.38 3.88 14.45 3.82 14.51 3.76C14.57 3.7 14.6 3.62 14.6 3.54Z M31.66 0.56C31.62 0.46 31.57 0.36 31.51 0.27C31.45 0.17 31.42 0.07 31.42 -0.04L31.42 -0.07C31.1 -0.07 30.8 -0.03 30.52 0.05C30.23 0.14 29.95 0.24 29.65 0.37C29.47 0.28 29.29 0.21 29.12 0.16C28.95 0.12 28.76 0.1 28.56 0.1C28.51 0.1 28.45 0.1 28.4 0.1C28.34 0.11 28.28 0.11 28.22 0.12C28.17 0.09 28.14 0.04 28.11 -0.01C28.08 -0.07 28.04 -0.1 27.99 -0.12C27.94 -0.1 27.88 -0.1 27.79 -0.1C27.6 -0.1 27.42 -0.13 27.25 -0.21C27.07 -0.29 26.89 -0.33 26.7 -0.33L26.56 -0.33C26.55 -0.36 26.52 -0.38 26.49 -0.39C26.46 -0.4 26.43 -0.41 26.39 -0.42C26.36 -0.42 26.33 -0.43 26.3 -0.44C26.28 -0.46 26.26 -0.49 26.26 -0.53L26.26 -0.56C26.24 -0.55 26.2 -0.55 26.17 -0.55L26.09 -0.55C25.93 -0.55 25.77 -0.57 25.6 -0.62C25.43 -0.67 25.29 -0.75 25.18 -0.85C24.92 -0.92 24.64 -1 24.36 -1.09C24.07 -1.18 23.82 -1.32 23.61 -1.5L23.28 -1.5C23.07 -1.64 22.85 -1.75 22.6 -1.85C22.35 -1.94 22.1 -2.02 21.85 -2.11C21.59 -2.19 21.35 -2.28 21.11 -2.38C20.87 -2.48 20.66 -2.61 20.48 -2.78C20.42 -2.76 20.34 -2.76 20.25 -2.78C20.17 -2.79 20.09 -2.83 20.02 -2.88C19.94 -2.93 19.88 -2.99 19.82 -3.06C19.77 -3.12 19.74 -3.19 19.74 -3.27L19.74 -3.31C19.92 -3.41 20.11 -3.5 20.31 -3.59C20.51 -3.68 20.68 -3.8 20.82 -3.95C21.21 -4.07 21.56 -4.23 21.89 -4.44C22.22 -4.64 22.56 -4.82 22.93 -4.98C23.05 -5.14 23.19 -5.27 23.34 -5.36C23.5 -5.45 23.66 -5.55 23.82 -5.66C23.89 -5.71 23.99 -5.79 24.11 -5.88C24.23 -5.97 24.34 -6.02 24.43 -6.02C24.46 -6.02 24.48 -6.01 24.5 -6C24.5 -6.1 24.52 -6.18 24.56 -6.23C24.6 -6.29 24.65 -6.33 24.72 -6.37L24.91 -6.48C24.97 -6.52 25.02 -6.57 25.05 -6.64L25.33 -6.64C25.4 -6.75 25.43 -6.85 25.44 -6.95C25.67 -7.04 25.87 -7.16 26.03 -7.31C26.2 -7.47 26.34 -7.64 26.48 -7.83C26.61 -8.01 26.74 -8.21 26.87 -8.4C26.99 -8.6 27.14 -8.78 27.3 -8.94C27.32 -9.12 27.36 -9.27 27.43 -9.39C27.5 -9.51 27.59 -9.64 27.69 -9.79C27.68 -9.92 27.69 -10.04 27.73 -10.17C27.77 -10.3 27.79 -10.43 27.79 -10.55C27.79 -10.68 27.77 -10.79 27.71 -10.88C27.65 -10.97 27.62 -11.07 27.62 -11.17C27.62 -11.19 27.62 -11.2 27.62 -11.21C27.63 -11.22 27.63 -11.23 27.63 -11.25C27.56 -11.3 27.5 -11.36 27.45 -11.44C27.41 -11.53 27.37 -11.61 27.34 -11.69C27.05 -11.91 26.74 -12.1 26.4 -12.26C26.06 -12.42 25.71 -12.54 25.34 -12.64C24.97 -12.74 24.6 -12.81 24.23 -12.85C23.85 -12.9 23.49 -12.92 23.13 -12.92C22.98 -12.92 22.82 -12.92 22.67 -12.91C22.51 -12.9 22.36 -12.88 22.2 -12.87C22.12 -12.92 22.03 -12.95 21.93 -12.95C21.83 -12.95 21.74 -12.92 21.66 -12.87C21.09 -12.87 20.53 -12.82 19.98 -12.74C19.43 -12.66 18.88 -12.57 18.32 -12.47C18.27 -12.43 18.25 -12.39 18.25 -12.35C18.24 -12.3 18.2 -12.28 18.13 -12.28C18.09 -12.28 18.06 -12.28 18.03 -12.3C17.99 -12.31 17.96 -12.32 17.92 -12.32C17.77 -12.32 17.63 -12.29 17.49 -12.22C17.36 -12.16 17.22 -12.13 17.06 -12.13C16.97 -12.13 16.9 -12.15 16.86 -12.18C16.83 -12.09 16.77 -12.02 16.69 -11.98C16.6 -11.94 16.51 -11.91 16.41 -11.89C16.32 -11.86 16.22 -11.84 16.13 -11.81C16.04 -11.77 15.97 -11.72 15.91 -11.65C15.9 -11.64 15.88 -11.63 15.85 -11.63C15.81 -11.63 15.78 -11.64 15.74 -11.66C15.71 -11.68 15.67 -11.69 15.63 -11.69C15.32 -11.5 14.99 -11.35 14.64 -11.24C14.3 -11.13 13.97 -10.99 13.66 -10.81C13.56 -10.82 13.47 -10.81 13.4 -10.79C13.33 -10.76 13.25 -10.73 13.18 -10.69C13.11 -10.65 13.03 -10.62 12.96 -10.6C12.89 -10.57 12.81 -10.55 12.71 -10.55C12.66 -10.55 12.62 -10.56 12.59 -10.57C12.34 -10.41 12.07 -10.28 11.79 -10.17C11.51 -10.06 11.24 -9.95 10.96 -9.83C10.95 -9.77 10.93 -9.7 10.92 -9.62C10.9 -9.54 10.87 -9.48 10.83 -9.43C10.93 -9.33 11 -9.21 11.04 -9.08C11.08 -8.94 11.14 -8.82 11.21 -8.71C11.27 -8.67 11.36 -8.65 11.46 -8.65C11.58 -8.65 11.7 -8.69 11.8 -8.75L12.1 -8.94C12.39 -8.98 12.64 -9.05 12.86 -9.17C13.07 -9.28 13.29 -9.42 13.52 -9.58L13.58 -9.58C13.62 -9.58 13.69 -9.58 13.77 -9.58C13.85 -9.57 13.91 -9.59 13.96 -9.64C14.01 -9.66 14.04 -9.7 14.03 -9.76C14.02 -9.83 14.05 -9.87 14.11 -9.88L14.34 -9.94C14.39 -9.96 14.44 -9.99 14.49 -10.04C14.55 -10.08 14.6 -10.11 14.64 -10.12C14.74 -10.14 14.84 -10.17 14.93 -10.18C15.02 -10.19 15.11 -10.22 15.2 -10.27C15.41 -10.35 15.62 -10.44 15.83 -10.53C16.03 -10.62 16.25 -10.66 16.49 -10.66L16.6 -10.66C16.73 -10.78 16.88 -10.87 17.07 -10.92C17.26 -10.97 17.43 -11.01 17.58 -11.06C17.63 -10.85 17.66 -10.64 17.67 -10.43C17.68 -10.22 17.69 -10.01 17.69 -9.8C17.69 -9.37 17.67 -8.93 17.63 -8.49C17.59 -8.05 17.55 -7.61 17.5 -7.16C17.48 -6.96 17.47 -6.76 17.47 -6.56C17.47 -6.36 17.46 -6.16 17.45 -5.95C17.44 -5.85 17.42 -5.74 17.4 -5.62C17.37 -5.5 17.36 -5.39 17.35 -5.29L17.19 -3.86C17.14 -3.84 17.13 -3.8 17.14 -3.75C17.06 -3.61 16.97 -3.49 16.86 -3.4C16.75 -3.3 16.69 -3.17 16.69 -2.99C16.69 -2.8 16.74 -2.66 16.82 -2.58C16.91 -2.49 16.99 -2.37 17.05 -2.23C17.02 -1.96 17.01 -1.67 17 -1.37C17 -1.07 16.99 -0.77 16.97 -0.47C16.95 -0.18 16.92 0.12 16.88 0.41C16.84 0.7 16.77 0.98 16.67 1.24C16.6 1.4 16.56 1.55 16.54 1.7C16.51 1.84 16.5 1.99 16.5 2.15C16.5 2.26 16.51 2.37 16.52 2.48C16.52 2.6 16.54 2.71 16.56 2.83C16.58 2.91 16.6 3.01 16.6 3.12C16.6 3.15 16.59 3.19 16.57 3.23C16.55 3.26 16.54 3.3 16.54 3.35C16.54 3.38 16.55 3.4 16.56 3.42C16.66 3.55 16.75 3.64 16.83 3.71C16.91 3.77 17.02 3.85 17.14 3.95C17.22 3.95 17.26 3.91 17.27 3.83C17.29 3.76 17.31 3.7 17.35 3.65C17.5 3.67 17.61 3.74 17.68 3.86C17.77 3.78 17.86 3.72 17.95 3.67C18.04 3.62 18.13 3.57 18.22 3.51C18.24 3.43 18.25 3.35 18.25 3.27L18.25 3.04C18.25 2.93 18.25 2.84 18.25 2.75C18.24 2.67 18.23 2.57 18.22 2.47C18.24 2.4 18.26 2.33 18.27 2.26C18.29 2.18 18.3 2.11 18.32 2.02C18.27 1.93 18.25 1.81 18.25 1.65L18.25 1.42C18.25 1.35 18.24 1.28 18.22 1.2C18.29 1 18.33 0.78 18.35 0.54C18.37 0.3 18.38 0.06 18.4 -0.18C18.41 -0.43 18.43 -0.66 18.46 -0.89C18.48 -1.12 18.54 -1.32 18.62 -1.5C18.69 -1.48 18.77 -1.45 18.85 -1.44C18.92 -1.42 19 -1.41 19.09 -1.41C19.13 -1.41 19.17 -1.41 19.2 -1.42C19.23 -1.42 19.27 -1.43 19.3 -1.44C19.38 -1.37 19.45 -1.32 19.53 -1.27C19.61 -1.23 19.68 -1.17 19.74 -1.11C19.75 -1.14 19.78 -1.16 19.84 -1.16C19.87 -1.16 19.9 -1.16 19.93 -1.15C19.97 -1.14 20 -1.14 20.03 -1.15C20.21 -1.05 20.39 -0.96 20.58 -0.89L21.14 -0.68C21.33 -0.62 21.52 -0.55 21.7 -0.48C21.89 -0.41 22.07 -0.32 22.24 -0.22C22.37 -0.23 22.49 -0.2 22.61 -0.13C22.73 -0.06 22.84 0 22.93 0.07C23.02 0.13 23.13 0.18 23.26 0.22C23.38 0.26 23.52 0.29 23.65 0.32C23.79 0.35 23.92 0.39 24.06 0.43C24.19 0.47 24.3 0.53 24.4 0.62L24.49 0.62C24.63 0.62 24.79 0.64 24.96 0.7C25.13 0.75 25.29 0.81 25.44 0.88C25.59 0.94 25.72 1 25.85 1.06C25.97 1.12 26.06 1.15 26.13 1.15L26.81 1.15C26.9 1.25 27 1.31 27.09 1.34C27.19 1.37 27.29 1.38 27.39 1.39C27.5 1.39 27.6 1.4 27.7 1.42C27.8 1.44 27.9 1.48 27.99 1.54C28.25 1.53 28.51 1.54 28.75 1.57C29 1.61 29.25 1.63 29.5 1.64C29.71 1.57 29.94 1.49 30.17 1.42C30.41 1.35 30.62 1.24 30.79 1.11C30.87 1.13 30.96 1.15 31.05 1.15C31.22 1.15 31.36 1.1 31.47 0.99C31.58 0.89 31.65 0.74 31.66 0.56ZM26.43 -10.35C26.43 -10.2 26.4 -10.07 26.33 -9.94C26.27 -9.81 26.2 -9.68 26.11 -9.56C26.03 -9.43 25.95 -9.3 25.86 -9.18C25.77 -9.06 25.71 -8.93 25.68 -8.8C25.26 -8.42 24.82 -8.06 24.36 -7.72C23.91 -7.39 23.46 -7.03 23.02 -6.64C22.95 -6.63 22.89 -6.6 22.85 -6.56C22.8 -6.51 22.73 -6.49 22.64 -6.49C22.57 -6.39 22.48 -6.31 22.37 -6.25C22.27 -6.18 22.18 -6.1 22.11 -6C21.82 -5.9 21.54 -5.78 21.27 -5.63C21.01 -5.49 20.74 -5.34 20.48 -5.19C20.22 -5.04 19.95 -4.9 19.67 -4.77C19.4 -4.64 19.11 -4.55 18.81 -4.48C18.83 -5.09 18.87 -5.68 18.93 -6.28C18.99 -6.87 19.04 -7.46 19.1 -8.07C19.12 -8.28 19.13 -8.48 19.14 -8.68C19.15 -8.88 19.16 -9.09 19.18 -9.3L19.18 -9.56C19.18 -9.66 19.19 -9.75 19.21 -9.83C19.22 -9.88 19.23 -9.94 19.25 -9.99C19.27 -10.05 19.28 -10.1 19.29 -10.16C19.32 -10.29 19.34 -10.43 19.35 -10.57C19.35 -10.71 19.36 -10.84 19.36 -10.98L19.36 -11.16C19.36 -11.22 19.35 -11.28 19.35 -11.35C19.41 -11.37 19.48 -11.39 19.57 -11.43C19.66 -11.47 19.75 -11.5 19.84 -11.53C19.93 -11.56 20.02 -11.6 20.1 -11.63C20.18 -11.66 20.24 -11.68 20.29 -11.69C20.38 -11.71 20.48 -11.72 20.59 -11.72C20.7 -11.72 20.8 -11.72 20.9 -11.73L21.62 -11.79C21.85 -11.8 22.09 -11.81 22.33 -11.81C22.45 -11.81 22.58 -11.81 22.7 -11.8C22.83 -11.79 22.95 -11.78 23.08 -11.76C23.13 -11.75 23.19 -11.74 23.25 -11.72C23.31 -11.71 23.37 -11.7 23.42 -11.69L23.72 -11.69C23.84 -11.69 23.96 -11.68 24.08 -11.66C24.19 -11.63 24.31 -11.61 24.43 -11.58C24.67 -11.52 24.9 -11.44 25.13 -11.35C25.36 -11.26 25.59 -11.17 25.83 -11.1C25.88 -11.03 25.94 -10.97 26.01 -10.92C26.08 -10.88 26.15 -10.83 26.21 -10.78C26.27 -10.73 26.33 -10.67 26.37 -10.61C26.41 -10.55 26.43 -10.46 26.43 -10.35Z"/></g><g id="SvgjsG1503" class="text" transform="translate(-1.0400000000000063, 81.29407101197984) scale(1)" light-content="false" fill="#303030"><path d="M3.25 -16.07L2.99 -2.41C2.99 -1.96 2.95 -1.67 2.9 -1.52C2.85 -1.41 2.77 -1.3 2.66 -1.22C2.55 -1.14 2.1 -1.09 1.32 -1.09L1.04 -1.09L1.04 0L7.08 0L7.08 -1.09C6.23 -1.09 5.61 -1.11 5.21 -1.13C4.81 -1.16 4.56 -1.23 4.45 -1.36C4.34 -1.49 4.29 -1.72 4.29 -2.04L4.4 -14.81L10.02 -1.79C10.6 -0.46 10.96 0.2 11.12 0.2C11.22 0.2 11.3 0.15 11.35 0.07C11.4 -0.02 11.6 -0.52 11.96 -1.44C12.31 -2.36 12.8 -3.55 13.41 -5.01L17.73 -15.18L17.73 -2.32C17.73 -1.93 17.7 -1.66 17.64 -1.51C17.6 -1.4 17.51 -1.3 17.39 -1.22C17.27 -1.14 16.81 -1.09 16.02 -1.09L15.46 -1.09L15.48 0L22.29 0L22.26 -1.09L21.7 -1.09C21.21 -1.09 20.89 -1.11 20.73 -1.13C20.59 -1.15 20.49 -1.17 20.42 -1.19C20.34 -1.2 20.28 -1.24 20.22 -1.3C20.16 -1.36 20.1 -1.43 20.06 -1.51C20.02 -1.59 20 -1.88 20 -2.38L20 -16.66C20 -17.04 20.1 -17.29 20.3 -17.39C20.5 -17.5 20.89 -17.55 21.45 -17.55L22.4 -17.55L22.4 -18.68L17.92 -18.68L11.65 -3.73L5.26 -18.68L1.04 -18.68L1.07 -17.55L2.5 -17.55C2.81 -17.55 3.02 -17.51 3.12 -17.41C3.22 -17.32 3.27 -17.11 3.27 -16.8Z M23.77 -10.53L23.8 -9.69C24.56 -9.84 25.05 -9.91 25.26 -9.91C25.47 -9.91 25.6 -9.85 25.66 -9.73C25.72 -9.61 25.75 -9.37 25.75 -9.02L25.75 -1.54C25.75 -1.32 25.68 -1.14 25.54 -1.01C25.45 -0.93 24.98 -0.9 24.13 -0.9L23.88 -0.9L23.88 0L29.96 0L29.96 -0.9L29.45 -0.9C28.67 -0.9 28.17 -0.94 27.96 -1.03C27.79 -1.09 27.71 -1.3 27.71 -1.65L27.71 -11.37C26.47 -11.03 25.15 -10.75 23.77 -10.53ZM26.28 -15.86C26.56 -15.53 26.79 -15.37 26.99 -15.37C27.18 -15.37 27.44 -15.53 27.76 -15.85C28.09 -16.16 28.25 -16.42 28.25 -16.62C28.25 -16.82 28.09 -17.07 27.77 -17.36C27.45 -17.66 27.21 -17.81 27.03 -17.81C26.85 -17.81 26.61 -17.67 26.31 -17.38C26.02 -17.1 25.87 -16.86 25.87 -16.65C25.87 -16.45 26.01 -16.18 26.28 -15.86Z M35.3 -1.18L34.83 -1.18C34.64 -1.18 34.5 -1.18 34.39 -1.19C34.33 -1.2 34.25 -1.21 34.16 -1.22C34.06 -1.23 33.99 -1.25 33.94 -1.26C33.88 -1.28 33.82 -1.3 33.75 -1.33C33.49 -1.41 33.37 -1.59 33.37 -1.87C33.37 -2.18 33.58 -2.43 34.02 -2.61C34.45 -2.79 35.03 -2.88 35.77 -2.88C37.13 -2.88 38.24 -3.28 39.1 -4.06C39.49 -4.42 39.8 -4.84 40.03 -5.3C40.25 -5.77 40.37 -6.29 40.37 -6.84C40.37 -7.39 40.26 -7.83 40.04 -8.16C39.96 -8.28 39.89 -8.39 39.82 -8.49C39.76 -8.6 39.72 -8.67 39.72 -8.72C39.72 -8.77 39.97 -8.79 40.48 -8.79L40.93 -8.79C41.2 -8.79 41.42 -8.81 41.61 -8.86C41.7 -8.88 41.77 -8.92 41.82 -8.97C41.87 -9.03 41.92 -9.1 41.97 -9.2C42.02 -9.29 42.05 -9.66 42.05 -10.3L42.05 -11.01L41.46 -11.01C41.43 -10.96 41.4 -10.89 41.35 -10.79C41.31 -10.7 41.27 -10.62 41.24 -10.57C41.21 -10.51 41.16 -10.45 41.08 -10.37C41.01 -10.3 40.92 -10.24 40.83 -10.2C40.73 -10.16 40.6 -10.12 40.44 -10.09C40.27 -10.06 39.99 -10.05 39.59 -10.05C39.19 -10.05 38.76 -10.19 38.3 -10.46C38.11 -10.57 37.85 -10.72 37.5 -10.91C37.14 -11.1 36.57 -11.2 35.77 -11.2C34.62 -11.2 33.59 -10.78 32.7 -9.95C31.8 -9.12 31.35 -8.13 31.35 -6.97C31.35 -5.86 31.7 -4.94 32.4 -4.21C32.93 -3.64 33.46 -3.29 33.98 -3.17C33.68 -3.09 33.33 -2.99 32.96 -2.84C32.77 -2.77 32.59 -2.68 32.4 -2.57C32.22 -2.46 32.05 -2.34 31.89 -2.21C31.74 -2.08 31.62 -1.93 31.52 -1.74C31.42 -1.56 31.38 -1.37 31.38 -1.18C31.38 -0.99 31.43 -0.81 31.53 -0.64C31.92 0 32.78 0.4 34.1 0.56C33.8 0.64 33.43 0.77 32.98 0.94C32.52 1.13 32.11 1.36 31.73 1.63C30.71 2.39 30.2 3.27 30.2 4.29C30.2 4.98 30.44 5.56 30.92 6.03C31.83 6.92 33.11 7.36 34.77 7.36C37.34 7.36 39.4 6.57 40.94 4.98C41.85 4.05 42.3 3.03 42.3 1.93C42.3 -0.16 40.6 -1.2 37.2 -1.2ZM32.36 4.13C32.36 3.2 32.76 2.4 33.57 1.71C34.42 0.98 35.51 0.62 36.84 0.62C39.17 0.62 40.34 1.31 40.34 2.69C40.34 3.56 40 4.29 39.31 4.87C38.35 5.67 37.11 6.08 35.61 6.08C34.52 6.08 33.71 5.88 33.17 5.48C32.63 5.08 32.36 4.63 32.36 4.13ZM34.27 -9.38C34.66 -9.9 35.14 -10.17 35.71 -10.17C36.29 -10.17 36.8 -9.88 37.26 -9.3C37.48 -9.01 37.66 -8.65 37.79 -8.2C37.92 -7.75 37.99 -7.14 37.99 -6.38C37.99 -5.62 37.78 -4.99 37.37 -4.47C36.98 -3.99 36.52 -3.75 36 -3.75C35.41 -3.75 34.88 -4.04 34.42 -4.61C34.2 -4.88 34.02 -5.24 33.88 -5.68C33.74 -6.13 33.67 -6.72 33.67 -7.47C33.67 -8.21 33.87 -8.85 34.27 -9.38Z M44.31 -10.08C44.51 -10.08 44.65 -10.04 44.73 -9.94C44.81 -9.85 44.84 -9.66 44.84 -9.38L44.84 -3.86C44.84 -3.19 44.9 -2.6 45.01 -2.09C45.07 -1.79 45.16 -1.52 45.26 -1.28C45.37 -1.04 45.5 -0.81 45.67 -0.6C45.84 -0.38 46.04 -0.2 46.26 -0.05C46.49 0.09 46.76 0.21 47.08 0.29C47.4 0.37 47.74 0.42 48.12 0.42C48.49 0.42 48.87 0.35 49.25 0.22C50.21 -0.1 51.04 -0.64 51.73 -1.4C51.83 -0.74 51.9 -0.08 51.93 0.59C52.13 0.53 52.59 0.4 53.3 0.2C54.02 0 54.71 -0.17 55.37 -0.31L55.37 -1.2C54.66 -1 54.24 -0.9 54.1 -0.9C53.96 -0.9 53.84 -0.96 53.74 -1.09C53.65 -1.2 53.61 -1.87 53.61 -3.11L53.61 -11.26C52.09 -11.01 50.81 -10.85 49.77 -10.78L49.85 -9.91C49.88 -9.94 50.13 -9.98 50.61 -10.02C50.81 -10.04 50.99 -10.05 51.15 -10.05C51.31 -10.05 51.43 -10 51.52 -9.9C51.6 -9.79 51.65 -9.57 51.65 -9.21L51.65 -2.38C51.12 -1.67 50.28 -1.32 49.12 -1.32C48.34 -1.32 47.76 -1.5 47.39 -1.87C47 -2.27 46.8 -3.06 46.8 -4.26L46.8 -11.26C45.96 -11.11 44.83 -10.97 43.39 -10.83L43.39 -9.99Z M58.65 -6.33L65.67 -7.17C65.75 -7.17 65.85 -7.21 65.96 -7.28C66.06 -7.35 66.12 -7.46 66.12 -7.59C66.12 -8.07 65.86 -8.63 65.35 -9.27C64.34 -10.54 63.05 -11.17 61.47 -11.17C60.06 -11.17 58.89 -10.62 57.95 -9.52C56.99 -8.39 56.51 -6.93 56.51 -5.13C56.51 -3.51 57 -2.17 57.96 -1.12C58.88 -0.13 60.1 0.36 61.64 0.36C62.77 0.36 63.8 0.07 64.74 -0.51C65.14 -0.75 65.49 -1 65.8 -1.27C66.11 -1.55 66.35 -1.79 66.5 -2.02C66.65 -2.24 66.73 -2.44 66.73 -2.6C66.73 -2.77 66.65 -2.86 66.48 -2.86C66.39 -2.86 66.1 -2.7 65.59 -2.39C65.39 -2.26 65.15 -2.14 64.9 -2.01C64.64 -1.88 64.32 -1.77 63.94 -1.67C63.57 -1.58 63.13 -1.54 62.62 -1.54C62.12 -1.54 61.62 -1.64 61.12 -1.83C59.45 -2.48 58.62 -3.85 58.62 -5.93ZM58.7 -7.31C58.85 -8.21 59.16 -8.92 59.62 -9.44C60.09 -9.96 60.57 -10.22 61.06 -10.22C61.55 -10.22 61.97 -10.07 62.32 -9.77C62.47 -9.64 62.67 -9.41 62.94 -9.06C63.2 -8.72 63.39 -8.34 63.51 -7.92Z M67.6 -19.68L67.66 -18.73C68.57 -18.92 69.12 -19.01 69.3 -19.01C69.49 -19.01 69.61 -18.93 69.67 -18.76C69.73 -18.59 69.75 -18.21 69.75 -17.61L69.75 -1.65C69.75 -1.33 69.67 -1.12 69.5 -1.03C69.33 -0.94 68.99 -0.9 68.5 -0.9L67.88 -0.9L67.88 0L73.99 0L73.99 -0.9L73.51 -0.9C72.74 -0.9 72.25 -0.94 72.04 -1.02C71.82 -1.11 71.72 -1.32 71.72 -1.65L71.72 -20.33C70.56 -20.12 69.19 -19.9 67.6 -19.68Z M87.55 -8.59L88.22 -8.63L94.22 0L98.28 0L98.23 -1.09L97.02 -1.09C96.81 -1.09 96.62 -1.14 96.45 -1.23C96.28 -1.32 96.07 -1.53 95.81 -1.85L90.44 -8.99C91.58 -9.29 92.48 -9.75 93.15 -10.38C93.45 -10.67 93.7 -10.99 93.9 -11.33C94.09 -11.67 94.23 -12.02 94.32 -12.36C94.4 -12.7 94.45 -13.14 94.45 -13.67C94.45 -14.21 94.27 -14.81 93.93 -15.5C93.59 -16.19 93.09 -16.79 92.44 -17.32C91.79 -17.85 91.05 -18.2 90.22 -18.39C89.39 -18.58 88.23 -18.68 86.74 -18.68L80.3 -18.68L80.27 -17.55L81.06 -17.55C81.52 -17.55 81.87 -17.53 82.11 -17.47C82.53 -17.38 82.74 -17.07 82.74 -16.55L82.74 -1.91C82.74 -1.62 82.72 -1.44 82.68 -1.35C82.65 -1.28 82.59 -1.21 82.52 -1.17C82.44 -1.12 82.1 -1.09 81.5 -1.09L80.86 -1.09L80.86 0L88.31 0L88.37 -1.09L86.94 -1.09C86.04 -1.09 85.48 -1.14 85.26 -1.22C85.09 -1.29 85 -1.52 85 -1.91L85 -8.76C85.56 -8.65 86.41 -8.59 87.55 -8.59ZM85 -9.69L85 -16.27C85 -16.84 85.08 -17.22 85.22 -17.39C85.31 -17.5 85.52 -17.55 85.85 -17.55C87.71 -17.55 89.16 -17.13 90.18 -16.27C91.17 -15.44 91.67 -14.34 91.67 -13C91.67 -11.77 91.28 -10.86 90.51 -10.28C89.73 -9.7 88.5 -9.41 86.8 -9.41C85.83 -9.41 85.23 -9.5 85 -9.69Z M99.2 -5.48C99.2 -4.25 99.49 -3.15 100.08 -2.17C101.12 -0.44 102.7 0.42 104.8 0.42C106.58 0.42 108 -0.12 109.07 -1.19C110.11 -2.24 110.63 -3.56 110.63 -5.15C110.63 -7.01 110.09 -8.49 109.03 -9.61C108.01 -10.69 106.58 -11.22 104.74 -11.22C103.26 -11.22 102.05 -10.83 101.12 -10.04C100.7 -9.67 100.34 -9.24 100.05 -8.75C99.75 -8.25 99.54 -7.73 99.4 -7.18C99.26 -6.63 99.2 -6.06 99.2 -5.48ZM101.44 -6.25C101.44 -7.51 101.74 -8.51 102.35 -9.24C102.94 -9.93 103.66 -10.27 104.49 -10.27C105.54 -10.27 106.42 -9.86 107.14 -9.04C107.49 -8.63 107.77 -8.1 107.97 -7.45C108.17 -6.79 108.27 -6.01 108.27 -5.09C108.27 -4.18 108.13 -3.35 107.84 -2.62C107.68 -2.23 107.49 -1.89 107.25 -1.61C107.02 -1.32 106.72 -1.09 106.37 -0.92C106.01 -0.75 105.61 -0.67 105.16 -0.67C104.72 -0.67 104.29 -0.78 103.9 -0.99C103.5 -1.2 103.15 -1.49 102.86 -1.85C102.56 -2.21 102.31 -2.63 102.09 -3.09C101.87 -3.56 101.71 -4.05 101.6 -4.58C101.49 -5.1 101.44 -5.66 101.44 -6.25Z M121.15 0.72C121.76 0.54 122.49 0.31 123.34 0.05C124.19 -0.22 124.81 -0.4 125.18 -0.51L125.18 -1.26C124.93 -1.19 124.67 -1.11 124.39 -1.02C124.11 -0.93 123.9 -0.87 123.75 -0.82C123.61 -0.78 123.47 -0.76 123.35 -0.76C123.23 -0.76 123.15 -0.84 123.11 -1C123.07 -1.16 123.05 -1.48 123.05 -1.96L123.05 -20.47C121.13 -19.97 119.72 -19.63 118.79 -19.46L118.85 -18.59C119.92 -18.84 120.54 -18.96 120.7 -18.96C120.96 -18.96 121.09 -18.69 121.09 -18.17L121.09 -9.83C120 -10.65 118.78 -11.06 117.43 -11.06C116.08 -11.06 114.84 -10.5 113.72 -9.39C113.21 -8.88 112.79 -8.25 112.47 -7.51C112.15 -6.77 111.99 -6 111.99 -5.18C111.99 -3.54 112.48 -2.21 113.46 -1.18C114.43 -0.17 115.6 0.33 116.97 0.33C118.6 0.33 119.99 -0.36 121.15 -1.76C121.16 -1.71 121.17 -1.56 121.17 -1.32ZM114.3 -7.78C114.48 -8.28 114.73 -8.71 115.04 -9.06C115.35 -9.41 115.71 -9.69 116.13 -9.89C116.55 -10.09 116.99 -10.19 117.44 -10.19C117.89 -10.19 118.32 -10.13 118.73 -9.99C119.77 -9.67 120.56 -9.14 121.09 -8.4L121.09 -2.38C120.86 -2.13 120.46 -1.85 119.88 -1.54C119.54 -1.35 119.05 -1.26 118.43 -1.26C117.08 -1.26 116 -1.75 115.2 -2.75C114.83 -3.2 114.54 -3.73 114.34 -4.32C114.13 -4.91 114.03 -5.51 114.03 -6.11C114.03 -6.72 114.12 -7.27 114.3 -7.78Z M128.31 -8.87L128.31 -2.04C128.31 -1.65 128.29 -1.39 128.24 -1.26C128.21 -1.16 128.15 -1.08 128.08 -1C128.01 -0.93 127.67 -0.9 127.08 -0.9L126.55 -0.9L126.55 0L133.24 0L133.24 -0.9L132.04 -0.9C131.22 -0.9 130.73 -0.96 130.55 -1.08C130.36 -1.19 130.27 -1.52 130.27 -2.04L130.27 -6.77C130.27 -7.12 130.4 -7.45 130.66 -7.77C130.92 -8.08 131.23 -8.33 131.58 -8.5C131.93 -8.68 132.26 -8.76 132.57 -8.76C133.02 -8.76 133.24 -8.55 133.24 -8.12L133.24 -7.76L133.69 -7.59L134.75 -10.36C134.67 -10.48 134.6 -10.56 134.54 -10.61C134.2 -10.91 133.76 -11.06 133.21 -11.06C132.7 -11.06 132.21 -10.82 131.74 -10.35C131.53 -10.14 131.33 -9.92 131.14 -9.67C130.94 -9.42 130.74 -9.12 130.53 -8.76C130.32 -8.41 130.22 -8.22 130.22 -8.2L130.22 -11.37C129.51 -11.2 128.96 -11.06 128.56 -10.96C128.16 -10.86 127.84 -10.79 127.58 -10.73C127.33 -10.67 127.16 -10.64 127.07 -10.62C126.99 -10.6 126.85 -10.58 126.66 -10.54C126.46 -10.51 126.29 -10.48 126.13 -10.45L126.21 -9.58C127.28 -9.78 127.87 -9.88 127.99 -9.88C128.2 -9.88 128.31 -9.55 128.31 -8.87Z M135.95 -17.64L138.36 -13.1L139.36 -13.1L137.91 -17.64ZM135.98 -10.53L136.01 -9.69C136.77 -9.84 137.26 -9.91 137.47 -9.91C137.68 -9.91 137.81 -9.85 137.87 -9.73C137.93 -9.61 137.96 -9.37 137.96 -9.02L137.96 -1.54C137.96 -1.32 137.89 -1.14 137.75 -1.01C137.66 -0.93 137.19 -0.9 136.34 -0.9L136.09 -0.9L136.09 0L142.17 0L142.17 -0.9L141.66 -0.9C140.88 -0.9 140.39 -0.94 140.17 -1.03C140.01 -1.09 139.92 -1.3 139.92 -1.65L139.92 -11.37C138.68 -11.03 137.37 -10.75 135.98 -10.53Z M147.51 -1.18L147.04 -1.18C146.85 -1.18 146.71 -1.18 146.6 -1.19C146.54 -1.2 146.47 -1.21 146.37 -1.22C146.28 -1.23 146.2 -1.25 146.15 -1.26C146.1 -1.28 146.03 -1.3 145.96 -1.33C145.71 -1.41 145.58 -1.59 145.58 -1.87C145.58 -2.18 145.79 -2.43 146.23 -2.61C146.66 -2.79 147.25 -2.88 147.98 -2.88C149.34 -2.88 150.45 -3.28 151.31 -4.06C151.71 -4.42 152.01 -4.84 152.24 -5.3C152.47 -5.77 152.58 -6.29 152.58 -6.84C152.58 -7.39 152.47 -7.83 152.26 -8.16C152.17 -8.28 152.1 -8.39 152.03 -8.49C151.97 -8.6 151.94 -8.67 151.94 -8.72C151.94 -8.77 152.19 -8.79 152.69 -8.79L153.14 -8.79C153.41 -8.79 153.64 -8.81 153.82 -8.86C153.91 -8.88 153.98 -8.92 154.03 -8.97C154.08 -9.03 154.13 -9.1 154.18 -9.2C154.23 -9.29 154.26 -9.66 154.26 -10.3L154.26 -11.01L153.67 -11.01C153.64 -10.96 153.61 -10.89 153.56 -10.79C153.52 -10.7 153.48 -10.62 153.45 -10.57C153.42 -10.51 153.37 -10.45 153.29 -10.37C153.22 -10.3 153.13 -10.24 153.04 -10.2C152.95 -10.16 152.82 -10.12 152.65 -10.09C152.48 -10.06 152.2 -10.05 151.8 -10.05C151.4 -10.05 150.97 -10.19 150.51 -10.46C150.33 -10.57 150.06 -10.72 149.71 -10.91C149.36 -11.1 148.78 -11.2 147.98 -11.2C146.83 -11.2 145.81 -10.78 144.91 -9.95C144.01 -9.12 143.56 -8.13 143.56 -6.97C143.56 -5.86 143.91 -4.94 144.61 -4.21C145.15 -3.64 145.67 -3.29 146.19 -3.17C145.89 -3.09 145.55 -2.99 145.17 -2.84C144.99 -2.77 144.8 -2.68 144.61 -2.57C144.43 -2.46 144.26 -2.34 144.1 -2.21C143.95 -2.08 143.83 -1.93 143.73 -1.74C143.64 -1.56 143.59 -1.37 143.59 -1.18C143.59 -0.99 143.64 -0.81 143.75 -0.64C144.13 0 144.99 0.4 146.31 0.56C146.01 0.64 145.64 0.77 145.2 0.94C144.74 1.13 144.32 1.36 143.94 1.63C142.92 2.39 142.41 3.27 142.41 4.29C142.41 4.98 142.65 5.56 143.13 6.03C144.04 6.92 145.32 7.36 146.98 7.36C149.55 7.36 151.61 6.57 153.15 4.98C154.06 4.05 154.51 3.03 154.51 1.93C154.51 -0.16 152.81 -1.2 149.41 -1.2ZM144.57 4.13C144.57 3.2 144.98 2.4 145.78 1.71C146.64 0.98 147.72 0.62 149.05 0.62C151.38 0.62 152.55 1.31 152.55 2.69C152.55 3.56 152.21 4.29 151.53 4.87C150.56 5.67 149.32 6.08 147.82 6.08C146.74 6.08 145.92 5.88 145.38 5.48C144.84 5.08 144.57 4.63 144.57 4.13ZM146.48 -9.38C146.87 -9.9 147.35 -10.17 147.93 -10.17C148.5 -10.17 149.01 -9.88 149.47 -9.3C149.69 -9.01 149.87 -8.65 150 -8.2C150.13 -7.75 150.2 -7.14 150.2 -6.38C150.2 -5.62 149.99 -4.99 149.58 -4.47C149.19 -3.99 148.73 -3.75 148.21 -3.75C147.62 -3.75 147.09 -4.04 146.63 -4.61C146.41 -4.88 146.23 -5.24 146.09 -5.68C145.95 -6.13 145.89 -6.72 145.89 -7.47C145.89 -8.21 146.08 -8.85 146.48 -9.38Z M156.52 -10.08C156.72 -10.08 156.86 -10.04 156.94 -9.94C157.02 -9.85 157.06 -9.66 157.06 -9.38L157.06 -3.86C157.06 -3.19 157.11 -2.6 157.22 -2.09C157.28 -1.79 157.37 -1.52 157.47 -1.28C157.58 -1.04 157.71 -0.81 157.88 -0.6C158.05 -0.38 158.25 -0.2 158.47 -0.05C158.7 0.09 158.97 0.21 159.29 0.29C159.61 0.37 159.96 0.42 160.33 0.42C160.7 0.42 161.08 0.35 161.46 0.22C162.43 -0.1 163.25 -0.64 163.94 -1.4C164.04 -0.74 164.11 -0.08 164.14 0.59C164.34 0.53 164.8 0.4 165.52 0.2C166.23 0 166.92 -0.17 167.58 -0.31L167.58 -1.2C166.88 -1 166.45 -0.9 166.31 -0.9C166.17 -0.9 166.05 -0.96 165.95 -1.09C165.86 -1.2 165.82 -1.87 165.82 -3.11L165.82 -11.26C164.3 -11.01 163.02 -10.85 161.98 -10.78L162.07 -9.91C162.09 -9.94 162.34 -9.98 162.82 -10.02C163.02 -10.04 163.2 -10.05 163.36 -10.05C163.52 -10.05 163.65 -10 163.73 -9.9C163.82 -9.79 163.86 -9.57 163.86 -9.21L163.86 -2.38C163.33 -1.67 162.49 -1.32 161.33 -1.32C160.55 -1.32 159.97 -1.5 159.61 -1.87C159.21 -2.27 159.01 -3.06 159.01 -4.26L159.01 -11.26C158.18 -11.11 157.04 -10.97 155.6 -10.83L155.6 -9.99Z M170.86 -6.33L177.88 -7.17C177.97 -7.17 178.06 -7.21 178.17 -7.28C178.28 -7.35 178.33 -7.46 178.33 -7.59C178.33 -8.07 178.07 -8.63 177.56 -9.27C176.55 -10.54 175.26 -11.17 173.68 -11.17C172.27 -11.17 171.1 -10.62 170.16 -9.52C169.2 -8.39 168.72 -6.93 168.72 -5.13C168.72 -3.51 169.21 -2.17 170.17 -1.12C171.09 -0.13 172.32 0.36 173.85 0.36C174.98 0.36 176.02 0.07 176.96 -0.51C177.35 -0.75 177.7 -1 178.01 -1.27C178.32 -1.55 178.56 -1.79 178.71 -2.02C178.87 -2.24 178.94 -2.44 178.94 -2.6C178.94 -2.77 178.86 -2.86 178.69 -2.86C178.6 -2.86 178.31 -2.7 177.8 -2.39C177.6 -2.26 177.37 -2.14 177.11 -2.01C176.85 -1.88 176.53 -1.77 176.16 -1.67C175.78 -1.58 175.34 -1.54 174.84 -1.54C174.33 -1.54 173.83 -1.64 173.33 -1.83C171.66 -2.48 170.83 -3.85 170.83 -5.93ZM170.91 -7.31C171.06 -8.21 171.37 -8.92 171.83 -9.44C172.3 -9.96 172.78 -10.22 173.27 -10.22C173.76 -10.22 174.18 -10.07 174.54 -9.77C174.68 -9.64 174.89 -9.41 175.15 -9.06C175.41 -8.72 175.61 -8.34 175.72 -7.92Z M190.98 -4.22L190.06 -4.22C190 -3.51 189.95 -3.04 189.92 -2.8C189.88 -2.61 189.86 -2.46 189.83 -2.35C189.81 -2.25 189.77 -2.15 189.72 -2.06C189.66 -1.96 189.6 -1.88 189.52 -1.81C189.44 -1.74 189.2 -1.71 188.79 -1.71L182.81 -1.71L189.89 -9.43C190.04 -9.61 190.26 -9.84 190.54 -10.11C190.82 -10.38 190.96 -10.55 190.96 -10.64C190.96 -10.77 190.64 -10.83 190 -10.83L182.47 -10.83C182.18 -10.83 181.99 -10.87 181.92 -10.93C181.88 -10.98 181.86 -11.12 181.86 -11.33L181.86 -11.4L181.15 -11.4L180.71 -7.42L181.43 -7.39C181.43 -7.65 181.51 -8.11 181.67 -8.76C181.73 -9.02 182.04 -9.15 182.61 -9.15L188.32 -9.15L181.07 -1.32C181.03 -1.28 180.97 -1.22 180.91 -1.15C180.84 -1.08 180.78 -1.02 180.74 -0.97C180.7 -0.93 180.65 -0.88 180.6 -0.82C180.54 -0.76 180.5 -0.7 180.47 -0.66C180.44 -0.62 180.4 -0.58 180.37 -0.53C180.34 -0.48 180.32 -0.43 180.3 -0.39C180.29 -0.35 180.28 -0.31 180.28 -0.26C180.28 -0.2 180.31 -0.15 180.36 -0.09C180.4 -0.03 180.65 0 181.1 0L190.67 0Z"/></g><rect id="SvgjsRect1504" width="16.52499999999999" height="1" fill="#303030" transform="translate(0, 98.61407101197983)" light-content="false"/><g id="SvgjsG1505" class="text" transform="translate(26.174999999999997, 102.15407101197982) scale(1)" light-content="false" fill="#303030"><path d="M0.76 -3.22C0.83 -3.22 0.91 -3.26 1.02 -3.32C1.12 -3.39 1.17 -3.46 1.17 -3.54C1.17 -3.61 1.15 -3.74 1.09 -3.92C1.07 -4.01 1.05 -4.08 1.04 -4.14C1.08 -4.22 1.18 -4.31 1.33 -4.4C1.4 -4.44 1.5 -4.47 1.63 -4.5C1.77 -4.52 1.95 -4.54 2.19 -4.54C2.42 -4.54 2.6 -4.48 2.74 -4.36C2.89 -4.24 2.96 -3.99 2.96 -3.61L2.96 -2.83C2.49 -2.83 2.05 -2.74 1.64 -2.56C1.24 -2.38 0.92 -2.13 0.7 -1.83C0.47 -1.52 0.35 -1.2 0.35 -0.86C0.35 -0.51 0.48 -0.25 0.75 -0.09C0.86 -0.01 0.99 0.05 1.13 0.09C1.26 0.12 1.44 0.14 1.65 0.14C1.86 0.14 2.1 0.06 2.39 -0.1C2.67 -0.26 2.9 -0.45 3.07 -0.69C3.26 -0.45 3.41 -0.26 3.52 -0.14C3.61 -0.03 3.75 0.09 3.94 0.22C3.96 0.22 4.21 0.07 4.67 -0.21C4.78 -0.28 4.84 -0.34 4.84 -0.39C4.84 -0.44 4.8 -0.47 4.72 -0.5C4.44 -0.57 4.23 -0.69 4.09 -0.84C3.95 -1 3.88 -1.28 3.88 -1.68L3.88 -4.11C3.88 -4.29 3.84 -4.44 3.78 -4.58C3.61 -4.96 3.25 -5.15 2.73 -5.15C1.81 -5.15 1.15 -4.89 0.76 -4.39C0.56 -4.12 0.45 -3.89 0.45 -3.69C0.45 -3.38 0.55 -3.22 0.76 -3.22ZM1.26 -1.19C1.26 -1.51 1.41 -1.81 1.7 -2.07C2.02 -2.34 2.44 -2.48 2.96 -2.48L2.96 -1.27C2.96 -1.13 2.93 -1.01 2.86 -0.9C2.82 -0.83 2.76 -0.78 2.7 -0.73C2.63 -0.68 2.54 -0.64 2.43 -0.61C2.32 -0.57 2.16 -0.56 1.95 -0.56C1.74 -0.56 1.57 -0.62 1.45 -0.74C1.32 -0.87 1.26 -1.02 1.26 -1.19Z M8.5 -0.55L8.28 -0.55C8.2 -0.55 8.13 -0.55 8.08 -0.55C8.05 -0.56 8.02 -0.56 7.97 -0.57C7.93 -0.57 7.89 -0.58 7.87 -0.59C7.84 -0.6 7.81 -0.61 7.78 -0.62C7.66 -0.65 7.6 -0.74 7.6 -0.87C7.6 -1.01 7.7 -1.13 7.9 -1.21C8.11 -1.3 8.38 -1.34 8.72 -1.34C9.35 -1.34 9.87 -1.52 10.27 -1.89C10.45 -2.05 10.59 -2.24 10.7 -2.46C10.8 -2.68 10.85 -2.92 10.85 -3.18C10.85 -3.43 10.8 -3.64 10.7 -3.79C10.67 -3.84 10.63 -3.9 10.6 -3.94C10.57 -3.99 10.55 -4.03 10.55 -4.05C10.55 -4.07 10.67 -4.08 10.9 -4.08L11.11 -4.08C11.24 -4.08 11.34 -4.09 11.43 -4.11C11.47 -4.12 11.51 -4.14 11.53 -4.17C11.55 -4.19 11.57 -4.23 11.6 -4.27C11.62 -4.31 11.63 -4.48 11.63 -4.78L11.63 -5.11L11.36 -5.11C11.35 -5.09 11.33 -5.06 11.31 -5.01C11.29 -4.97 11.27 -4.93 11.26 -4.91C11.24 -4.88 11.22 -4.85 11.18 -4.82C11.15 -4.78 11.11 -4.75 11.07 -4.74C11.02 -4.72 10.96 -4.7 10.89 -4.69C10.81 -4.67 10.68 -4.67 10.49 -4.67C10.31 -4.67 10.11 -4.73 9.89 -4.86C9.81 -4.91 9.68 -4.98 9.52 -5.07C9.36 -5.15 9.09 -5.2 8.72 -5.2C8.19 -5.2 7.71 -5.01 7.29 -4.62C6.88 -4.23 6.67 -3.77 6.67 -3.24C6.67 -2.72 6.83 -2.29 7.15 -1.96C7.4 -1.69 7.65 -1.53 7.89 -1.47C7.75 -1.44 7.59 -1.39 7.41 -1.32C7.33 -1.29 7.24 -1.24 7.16 -1.19C7.07 -1.14 6.99 -1.08 6.92 -1.03C6.85 -0.97 6.79 -0.89 6.75 -0.81C6.7 -0.72 6.68 -0.64 6.68 -0.55C6.68 -0.46 6.7 -0.37 6.75 -0.3C6.93 0 7.33 0.18 7.94 0.26C7.81 0.3 7.63 0.36 7.43 0.44C7.21 0.52 7.02 0.63 6.84 0.76C6.37 1.11 6.13 1.52 6.13 1.99C6.13 2.31 6.24 2.58 6.47 2.8C6.89 3.21 7.48 3.42 8.25 3.42C9.45 3.42 10.4 3.05 11.12 2.31C11.54 1.88 11.75 1.41 11.75 0.9C11.75 -0.07 10.96 -0.56 9.38 -0.56ZM7.14 1.92C7.14 1.49 7.32 1.11 7.7 0.79C8.09 0.45 8.6 0.29 9.22 0.29C10.3 0.29 10.84 0.61 10.84 1.25C10.84 1.65 10.68 1.99 10.36 2.26C9.92 2.63 9.34 2.82 8.64 2.82C8.14 2.82 7.76 2.73 7.51 2.54C7.26 2.36 7.14 2.15 7.14 1.92ZM8.02 -4.35C8.2 -4.6 8.43 -4.72 8.69 -4.72C8.96 -4.72 9.2 -4.59 9.41 -4.32C9.51 -4.19 9.6 -4.01 9.66 -3.81C9.72 -3.6 9.75 -3.32 9.75 -2.96C9.75 -2.61 9.65 -2.31 9.46 -2.08C9.28 -1.85 9.07 -1.74 8.83 -1.74C8.55 -1.74 8.31 -1.87 8.09 -2.14C7.99 -2.27 7.9 -2.43 7.84 -2.64C7.78 -2.85 7.75 -3.12 7.75 -3.47C7.75 -3.81 7.84 -4.11 8.02 -4.35Z M14.51 -2.94L17.77 -3.33C17.81 -3.33 17.85 -3.35 17.9 -3.38C17.95 -3.41 17.97 -3.46 17.97 -3.52C17.97 -3.75 17.86 -4.01 17.62 -4.3C17.15 -4.89 16.55 -5.19 15.82 -5.19C15.16 -5.19 14.62 -4.93 14.18 -4.42C13.74 -3.9 13.51 -3.22 13.51 -2.38C13.51 -1.63 13.74 -1.01 14.19 -0.52C14.61 -0.06 15.18 0.17 15.9 0.17C16.42 0.17 16.9 0.03 17.34 -0.23C17.52 -0.35 17.68 -0.47 17.83 -0.59C17.97 -0.72 18.08 -0.83 18.15 -0.94C18.22 -1.04 18.26 -1.13 18.26 -1.21C18.26 -1.29 18.22 -1.33 18.14 -1.33C18.1 -1.33 17.96 -1.25 17.73 -1.11C17.63 -1.05 17.53 -0.99 17.41 -0.93C17.29 -0.87 17.14 -0.82 16.96 -0.78C16.79 -0.74 16.58 -0.71 16.35 -0.71C16.12 -0.71 15.89 -0.76 15.65 -0.85C14.88 -1.15 14.49 -1.79 14.49 -2.75ZM14.53 -3.39C14.6 -3.81 14.74 -4.14 14.96 -4.38C15.17 -4.62 15.4 -4.74 15.63 -4.74C15.85 -4.74 16.05 -4.68 16.21 -4.54C16.28 -4.48 16.38 -4.37 16.5 -4.21C16.62 -4.05 16.71 -3.87 16.76 -3.68Z M23.77 -4.18C23.9 -4.04 23.96 -3.78 23.96 -3.42L23.96 -0.81C23.96 -0.67 23.94 -0.56 23.9 -0.49C23.88 -0.44 23.75 -0.42 23.52 -0.42L23.23 -0.42L23.24 0L25.66 0L25.67 -0.42C25.33 -0.42 25.12 -0.43 25.02 -0.47C24.92 -0.51 24.88 -0.62 24.88 -0.81L24.88 -3.04C24.88 -3.4 24.87 -3.69 24.85 -3.9C24.83 -4.07 24.81 -4.2 24.78 -4.3C24.75 -4.4 24.7 -4.51 24.64 -4.63C24.58 -4.75 24.51 -4.84 24.42 -4.91C24.33 -4.97 24.23 -5.02 24.09 -5.07C23.96 -5.11 23.76 -5.14 23.48 -5.14C23.2 -5.14 22.89 -5.05 22.56 -4.87C22.41 -4.79 22.28 -4.71 22.16 -4.64C22.05 -4.56 21.95 -4.49 21.86 -4.42C21.77 -4.36 21.71 -4.32 21.68 -4.3C21.68 -4.58 21.69 -4.89 21.72 -5.23L20.12 -4.9L20.12 -4.5C20.42 -4.57 20.59 -4.6 20.61 -4.6C20.7 -4.6 20.75 -4.56 20.77 -4.48C20.8 -4.41 20.81 -4.23 20.81 -3.95L20.81 -0.72C20.81 -0.69 20.8 -0.66 20.8 -0.61C20.79 -0.57 20.78 -0.55 20.78 -0.53C20.77 -0.52 20.75 -0.5 20.73 -0.48C20.71 -0.46 20.69 -0.45 20.67 -0.44C20.64 -0.44 20.61 -0.43 20.56 -0.43C20.51 -0.42 20.45 -0.42 20.37 -0.42L20.09 -0.42L20.11 0L22.64 0L22.67 -0.42L22.5 -0.42C22.27 -0.42 22.12 -0.42 22.04 -0.43C21.98 -0.44 21.94 -0.44 21.91 -0.45C21.87 -0.45 21.83 -0.47 21.79 -0.51C21.74 -0.54 21.72 -0.62 21.72 -0.72L21.72 -3.99C22.28 -4.27 22.72 -4.41 23.06 -4.41C23.4 -4.41 23.63 -4.33 23.77 -4.18Z M27.31 -4.38L27.93 -4.38L27.93 -1.25C27.93 -0.85 28.03 -0.52 28.22 -0.27C28.32 -0.14 28.45 -0.04 28.62 0.03C28.78 0.11 28.98 0.14 29.2 0.14C29.42 0.14 29.65 0.1 29.9 0.01C30.14 -0.08 30.35 -0.2 30.51 -0.33C30.67 -0.46 30.75 -0.58 30.75 -0.68C30.75 -0.78 30.72 -0.83 30.66 -0.83C30.65 -0.83 30.6 -0.81 30.51 -0.77C30.43 -0.73 30.31 -0.69 30.16 -0.65C30.01 -0.6 29.87 -0.58 29.74 -0.58C29.61 -0.58 29.49 -0.6 29.4 -0.62C29.03 -0.72 28.84 -0.96 28.84 -1.35L28.84 -4.38L30.52 -4.38L30.6 -5.01L28.84 -5.01L28.84 -6.29C28.84 -6.35 28.82 -6.38 28.76 -6.38C28.73 -6.38 28.56 -6.19 28.25 -5.8C28.11 -5.61 28 -5.48 27.93 -5.4C27.85 -5.31 27.71 -5.15 27.48 -4.91C27.26 -4.67 27.15 -4.53 27.15 -4.48C27.15 -4.41 27.2 -4.38 27.31 -4.38Z M33.57 -2.94L36.84 -3.33C36.87 -3.33 36.92 -3.35 36.97 -3.38C37.02 -3.41 37.04 -3.46 37.04 -3.52C37.04 -3.75 36.92 -4.01 36.69 -4.3C36.22 -4.89 35.62 -5.19 34.88 -5.19C34.23 -5.19 33.68 -4.93 33.25 -4.42C32.8 -3.9 32.58 -3.22 32.58 -2.38C32.58 -1.63 32.81 -1.01 33.26 -0.52C33.68 -0.06 34.25 0.17 34.96 0.17C35.49 0.17 35.97 0.03 36.4 -0.23C36.59 -0.35 36.75 -0.47 36.9 -0.59C37.04 -0.72 37.15 -0.83 37.22 -0.94C37.29 -1.04 37.33 -1.13 37.33 -1.21C37.33 -1.29 37.29 -1.33 37.21 -1.33C37.17 -1.33 37.03 -1.25 36.8 -1.11C36.7 -1.05 36.59 -0.99 36.48 -0.93C36.36 -0.87 36.21 -0.82 36.03 -0.78C35.86 -0.74 35.65 -0.71 35.42 -0.71C35.19 -0.71 34.95 -0.76 34.72 -0.85C33.95 -1.15 33.56 -1.79 33.56 -2.75ZM33.6 -3.39C33.67 -3.81 33.81 -4.14 34.03 -4.38C34.24 -4.62 34.46 -4.74 34.69 -4.74C34.92 -4.74 35.12 -4.68 35.28 -4.54C35.35 -4.48 35.44 -4.37 35.57 -4.21C35.69 -4.05 35.78 -3.87 35.83 -3.68Z M47.2 0.34C47.49 0.25 47.83 0.14 48.23 0.02C48.62 -0.1 48.9 -0.19 49.08 -0.23L49.08 -0.58C48.96 -0.55 48.84 -0.52 48.71 -0.47C48.58 -0.43 48.48 -0.4 48.42 -0.38C48.35 -0.36 48.28 -0.35 48.23 -0.35C48.17 -0.35 48.13 -0.39 48.12 -0.46C48.1 -0.54 48.09 -0.69 48.09 -0.91L48.09 -9.5C47.2 -9.27 46.54 -9.11 46.11 -9.04L46.14 -8.63C46.64 -8.74 46.92 -8.8 47 -8.8C47.12 -8.8 47.18 -8.68 47.18 -8.44L47.18 -4.56C46.67 -4.94 46.1 -5.14 45.48 -5.14C44.85 -5.14 44.28 -4.88 43.76 -4.36C43.52 -4.12 43.32 -3.83 43.18 -3.49C43.03 -3.15 42.95 -2.78 42.95 -2.41C42.95 -1.64 43.18 -1.03 43.64 -0.55C44.09 -0.08 44.63 0.16 45.27 0.16C46.02 0.16 46.67 -0.17 47.2 -0.82C47.21 -0.79 47.22 -0.72 47.22 -0.61ZM44.03 -3.61C44.11 -3.84 44.22 -4.04 44.37 -4.21C44.51 -4.37 44.68 -4.5 44.88 -4.59C45.07 -4.69 45.28 -4.73 45.48 -4.73C45.69 -4.73 45.89 -4.7 46.08 -4.64C46.57 -4.49 46.93 -4.24 47.18 -3.9L47.18 -1.1C47.07 -0.99 46.88 -0.86 46.62 -0.71C46.46 -0.63 46.23 -0.58 45.94 -0.58C45.32 -0.58 44.82 -0.81 44.44 -1.28C44.27 -1.49 44.14 -1.73 44.04 -2C43.95 -2.28 43.9 -2.56 43.9 -2.84C43.9 -3.12 43.94 -3.38 44.03 -3.61Z M51.7 -2.94L54.97 -3.33C55 -3.33 55.05 -3.35 55.1 -3.38C55.15 -3.41 55.17 -3.46 55.17 -3.52C55.17 -3.75 55.05 -4.01 54.82 -4.3C54.35 -4.89 53.75 -5.19 53.01 -5.19C52.36 -5.19 51.82 -4.93 51.38 -4.42C50.94 -3.9 50.71 -3.22 50.71 -2.38C50.71 -1.63 50.94 -1.01 51.39 -0.52C51.81 -0.06 52.38 0.17 53.09 0.17C53.62 0.17 54.1 0.03 54.54 -0.23C54.72 -0.35 54.88 -0.47 55.03 -0.59C55.17 -0.72 55.28 -0.83 55.35 -0.94C55.42 -1.04 55.46 -1.13 55.46 -1.21C55.46 -1.29 55.42 -1.33 55.34 -1.33C55.3 -1.33 55.16 -1.25 54.93 -1.11C54.83 -1.05 54.73 -0.99 54.61 -0.93C54.49 -0.87 54.34 -0.82 54.16 -0.78C53.99 -0.74 53.78 -0.71 53.55 -0.71C53.32 -0.71 53.09 -0.76 52.85 -0.85C52.08 -1.15 51.69 -1.79 51.69 -2.75ZM51.73 -3.39C51.8 -3.81 51.94 -4.14 52.16 -4.38C52.37 -4.62 52.6 -4.74 52.82 -4.74C53.05 -4.74 53.25 -4.68 53.41 -4.54C53.48 -4.48 53.57 -4.37 53.7 -4.21C53.82 -4.05 53.91 -3.87 53.96 -3.68Z M61.85 -0.27C61.85 -0.07 61.9 0.03 61.99 0.03C62.06 0.03 62.16 -0.02 62.29 -0.12C62.43 -0.22 62.52 -0.27 62.58 -0.27C62.64 -0.27 62.9 -0.19 63.36 -0.02C63.6 0.07 63.93 0.12 64.33 0.12C65.01 0.12 65.57 -0.08 66.03 -0.49C66.68 -1.08 67.01 -1.83 67.01 -2.75C67.01 -3.41 66.82 -3.97 66.43 -4.44C66.25 -4.67 66 -4.85 65.69 -4.98C65.38 -5.12 65.05 -5.19 64.7 -5.19C64.36 -5.19 64.05 -5.13 63.77 -5.01C63.66 -4.96 63.54 -4.9 63.42 -4.83C63.31 -4.76 63.21 -4.7 63.15 -4.64C63.08 -4.59 63.01 -4.54 62.94 -4.48C62.86 -4.41 62.82 -4.38 62.8 -4.37L62.8 -9.4C61.84 -9.21 61.22 -9.09 60.93 -9.04L60.97 -8.63C61.39 -8.73 61.64 -8.78 61.71 -8.78C61.83 -8.78 61.89 -8.65 61.89 -8.39L61.89 -2.02ZM64.3 -4.48C64.45 -4.48 64.62 -4.46 64.79 -4.41C64.91 -4.37 65.03 -4.32 65.14 -4.26C65.25 -4.21 65.36 -4.12 65.48 -4.01C65.6 -3.9 65.7 -3.77 65.78 -3.62C65.87 -3.47 65.94 -3.28 65.99 -3.05C66.05 -2.82 66.08 -2.53 66.08 -2.16C66.08 -1.8 65.99 -1.47 65.83 -1.18C65.75 -1.05 65.66 -0.94 65.56 -0.83C65.45 -0.73 65.34 -0.65 65.23 -0.59C65.12 -0.53 65 -0.49 64.87 -0.45C64.75 -0.41 64.63 -0.38 64.52 -0.37C64.41 -0.36 64.29 -0.35 64.15 -0.35C64.01 -0.35 63.86 -0.37 63.71 -0.41C63.1 -0.55 62.8 -0.84 62.8 -1.27L62.8 -4.01C63.18 -4.32 63.68 -4.48 64.3 -4.48Z M68.99 -4.89L69 -4.5C69.36 -4.57 69.58 -4.6 69.68 -4.6C69.78 -4.6 69.84 -4.57 69.87 -4.52C69.89 -4.46 69.91 -4.35 69.91 -4.19L69.91 -0.71C69.91 -0.61 69.88 -0.53 69.81 -0.47C69.77 -0.43 69.55 -0.42 69.16 -0.42L69.04 -0.42L69.04 0L71.86 0L71.86 -0.42L71.63 -0.42C71.26 -0.42 71.03 -0.44 70.93 -0.48C70.86 -0.51 70.82 -0.6 70.82 -0.77L70.82 -5.28C70.24 -5.12 69.63 -4.99 68.99 -4.89ZM70.15 -7.36C70.28 -7.21 70.39 -7.13 70.48 -7.13C70.57 -7.13 70.69 -7.21 70.84 -7.36C70.99 -7.51 71.07 -7.63 71.07 -7.72C71.07 -7.81 70.99 -7.92 70.85 -8.06C70.7 -8.2 70.58 -8.27 70.5 -8.27C70.42 -8.27 70.31 -8.2 70.17 -8.07C70.03 -7.94 69.96 -7.83 69.96 -7.73C69.96 -7.64 70.03 -7.51 70.15 -7.36Z M74.68 -2.94L77.94 -3.33C77.98 -3.33 78.03 -3.35 78.08 -3.38C78.12 -3.41 78.15 -3.46 78.15 -3.52C78.15 -3.75 78.03 -4.01 77.79 -4.3C77.32 -4.89 76.72 -5.19 75.99 -5.19C75.34 -5.19 74.79 -4.93 74.36 -4.42C73.91 -3.9 73.69 -3.22 73.69 -2.38C73.69 -1.63 73.91 -1.01 74.36 -0.52C74.79 -0.06 75.36 0.17 76.07 0.17C76.6 0.17 77.08 0.03 77.51 -0.23C77.7 -0.35 77.86 -0.47 78 -0.59C78.15 -0.72 78.26 -0.83 78.33 -0.94C78.4 -1.04 78.44 -1.13 78.44 -1.21C78.44 -1.29 78.4 -1.33 78.32 -1.33C78.28 -1.33 78.14 -1.25 77.91 -1.11C77.81 -1.05 77.7 -0.99 77.58 -0.93C77.46 -0.87 77.32 -0.82 77.14 -0.78C76.96 -0.74 76.76 -0.71 76.53 -0.71C76.3 -0.71 76.06 -0.76 75.83 -0.85C75.06 -1.15 74.67 -1.79 74.67 -2.75ZM74.71 -3.39C74.78 -3.81 74.92 -4.14 75.13 -4.38C75.35 -4.62 75.57 -4.74 75.8 -4.74C76.03 -4.74 76.23 -4.68 76.39 -4.54C76.46 -4.48 76.55 -4.37 76.67 -4.21C76.8 -4.05 76.89 -3.87 76.94 -3.68Z M83.94 -4.18C84.07 -4.04 84.14 -3.78 84.14 -3.42L84.14 -0.81C84.14 -0.67 84.12 -0.56 84.08 -0.49C84.05 -0.44 83.93 -0.42 83.7 -0.42L83.4 -0.42L83.41 0L85.83 0L85.85 -0.42C85.51 -0.42 85.29 -0.43 85.2 -0.47C85.1 -0.51 85.05 -0.62 85.05 -0.81L85.05 -3.04C85.05 -3.4 85.04 -3.69 85.02 -3.9C85.01 -4.07 84.98 -4.2 84.95 -4.3C84.92 -4.4 84.88 -4.51 84.82 -4.63C84.75 -4.75 84.68 -4.84 84.6 -4.91C84.51 -4.97 84.4 -5.02 84.27 -5.07C84.14 -5.11 83.93 -5.14 83.66 -5.14C83.38 -5.14 83.07 -5.05 82.73 -4.87C82.59 -4.79 82.45 -4.71 82.34 -4.64C82.22 -4.56 82.12 -4.49 82.03 -4.42C81.94 -4.36 81.88 -4.32 81.85 -4.3C81.85 -4.58 81.87 -4.89 81.89 -5.23L80.29 -4.9L80.29 -4.5C80.6 -4.57 80.76 -4.6 80.79 -4.6C80.87 -4.6 80.93 -4.56 80.95 -4.48C80.97 -4.41 80.98 -4.23 80.98 -3.95L80.98 -0.72C80.98 -0.69 80.98 -0.66 80.97 -0.61C80.97 -0.57 80.96 -0.55 80.95 -0.53C80.95 -0.52 80.93 -0.5 80.91 -0.48C80.89 -0.46 80.86 -0.45 80.84 -0.44C80.82 -0.44 80.78 -0.43 80.74 -0.43C80.69 -0.42 80.63 -0.42 80.55 -0.42L80.27 -0.42L80.28 0L82.81 0L82.84 -0.42L82.67 -0.42C82.45 -0.42 82.3 -0.42 82.22 -0.43C82.16 -0.44 82.11 -0.44 82.08 -0.45C82.05 -0.45 82.01 -0.47 81.96 -0.51C81.92 -0.54 81.89 -0.62 81.89 -0.72L81.89 -3.99C82.45 -4.27 82.9 -4.41 83.24 -4.41C83.58 -4.41 83.81 -4.33 83.94 -4.18Z M88.54 -2.94L91.8 -3.33C91.84 -3.33 91.88 -3.35 91.93 -3.38C91.98 -3.41 92 -3.46 92 -3.52C92 -3.75 91.89 -4.01 91.65 -4.3C91.18 -4.89 90.58 -5.19 89.85 -5.19C89.19 -5.19 88.65 -4.93 88.21 -4.42C87.77 -3.9 87.54 -3.22 87.54 -2.38C87.54 -1.63 87.77 -1.01 88.22 -0.52C88.64 -0.06 89.21 0.17 89.93 0.17C90.45 0.17 90.93 0.03 91.37 -0.23C91.55 -0.35 91.71 -0.47 91.86 -0.59C92 -0.72 92.11 -0.83 92.18 -0.94C92.25 -1.04 92.29 -1.13 92.29 -1.21C92.29 -1.29 92.25 -1.33 92.17 -1.33C92.13 -1.33 91.99 -1.25 91.76 -1.11C91.66 -1.05 91.56 -0.99 91.44 -0.93C91.32 -0.87 91.17 -0.82 90.99 -0.78C90.82 -0.74 90.62 -0.71 90.38 -0.71C90.15 -0.71 89.92 -0.76 89.68 -0.85C88.91 -1.15 88.52 -1.79 88.52 -2.75ZM88.56 -3.39C88.63 -3.81 88.77 -4.14 88.99 -4.38C89.2 -4.62 89.43 -4.74 89.66 -4.74C89.88 -4.74 90.08 -4.68 90.24 -4.54C90.31 -4.48 90.41 -4.37 90.53 -4.21C90.65 -4.05 90.74 -3.87 90.79 -3.68Z M94.79 0.17C94.79 0.06 94.82 0 94.9 0C94.92 0 95.06 0.03 95.33 0.08C95.6 0.14 95.88 0.17 96.18 0.17C96.73 0.17 97.15 0.02 97.45 -0.28C97.58 -0.42 97.69 -0.57 97.76 -0.75C97.83 -0.92 97.86 -1.12 97.86 -1.33C97.86 -1.54 97.81 -1.73 97.7 -1.9C97.65 -2 97.57 -2.1 97.47 -2.22C97.37 -2.33 97.12 -2.53 96.72 -2.8L96.14 -3.19C96.03 -3.25 95.96 -3.31 95.91 -3.35C95.9 -3.36 95.86 -3.38 95.81 -3.42C95.76 -3.46 95.73 -3.48 95.71 -3.5C95.7 -3.51 95.67 -3.53 95.64 -3.57C95.6 -3.61 95.57 -3.64 95.56 -3.66C95.55 -3.68 95.52 -3.72 95.48 -3.78C95.44 -3.83 95.42 -3.93 95.42 -4.06C95.42 -4.23 95.5 -4.37 95.65 -4.5C95.8 -4.62 95.97 -4.68 96.14 -4.68C96.3 -4.68 96.46 -4.67 96.6 -4.63C96.98 -4.55 97.24 -4.43 97.39 -4.25L97.4 -3.33L97.81 -3.33L97.81 -5.29L97.4 -5.3C97.4 -5.04 97.36 -4.91 97.3 -4.91C97.26 -4.91 97.19 -4.93 97.09 -4.97C96.99 -5.01 96.86 -5.05 96.69 -5.09C96.52 -5.13 96.32 -5.15 96.07 -5.15C95.83 -5.15 95.59 -5.09 95.35 -4.97C95.1 -4.85 94.91 -4.69 94.77 -4.49C94.63 -4.29 94.56 -4.08 94.56 -3.85C94.56 -3.31 94.89 -2.83 95.54 -2.41L96.01 -2.09C96.23 -1.95 96.4 -1.82 96.53 -1.72C96.62 -1.64 96.68 -1.57 96.73 -1.51C96.78 -1.44 96.82 -1.37 96.85 -1.28C96.89 -1.2 96.9 -1.08 96.9 -0.95C96.9 -0.81 96.84 -0.67 96.73 -0.52C96.67 -0.44 96.59 -0.38 96.49 -0.34C96.39 -0.3 96.27 -0.27 96.14 -0.27C96.01 -0.27 95.81 -0.31 95.53 -0.37C95.25 -0.44 94.98 -0.58 94.72 -0.78L94.59 -1.86L94.19 -1.83L94.42 0.32L94.8 0.3Z M104.65 -4.12L104.65 -0.95C104.65 -0.76 104.64 -0.64 104.62 -0.59C104.6 -0.54 104.57 -0.5 104.54 -0.47C104.51 -0.43 104.35 -0.42 104.08 -0.42L103.83 -0.42L103.83 0L106.94 0L106.94 -0.42L106.38 -0.42C106 -0.42 105.77 -0.44 105.69 -0.5C105.6 -0.55 105.56 -0.7 105.56 -0.95L105.56 -3.15C105.56 -3.31 105.62 -3.46 105.74 -3.61C105.86 -3.75 106 -3.87 106.17 -3.95C106.33 -4.03 106.48 -4.07 106.63 -4.07C106.83 -4.07 106.94 -3.97 106.94 -3.77L106.94 -3.6L107.15 -3.52L107.64 -4.81C107.6 -4.86 107.57 -4.9 107.54 -4.93C107.38 -5.07 107.18 -5.14 106.92 -5.14C106.69 -5.14 106.46 -5.03 106.24 -4.81C106.14 -4.71 106.05 -4.6 105.96 -4.49C105.87 -4.37 105.78 -4.23 105.68 -4.07C105.58 -3.9 105.53 -3.82 105.53 -3.81L105.53 -5.28C105.21 -5.2 104.95 -5.13 104.76 -5.09C104.58 -5.04 104.43 -5.01 104.31 -4.98C104.19 -4.96 104.11 -4.94 104.07 -4.93C104.03 -4.92 103.97 -4.91 103.88 -4.9C103.79 -4.88 103.71 -4.86 103.64 -4.85L103.67 -4.45C104.17 -4.54 104.44 -4.59 104.5 -4.59C104.6 -4.59 104.65 -4.43 104.65 -4.12Z M109.91 -3.22C109.98 -3.22 110.07 -3.26 110.17 -3.32C110.28 -3.39 110.33 -3.46 110.33 -3.54C110.33 -3.61 110.3 -3.74 110.25 -3.92C110.23 -4.01 110.21 -4.08 110.2 -4.14C110.24 -4.22 110.34 -4.31 110.48 -4.4C110.55 -4.44 110.66 -4.47 110.79 -4.5C110.93 -4.52 111.11 -4.54 111.34 -4.54C111.57 -4.54 111.76 -4.48 111.9 -4.36C112.05 -4.24 112.12 -3.99 112.12 -3.61L112.12 -2.83C111.64 -2.83 111.2 -2.74 110.8 -2.56C110.4 -2.38 110.08 -2.13 109.85 -1.83C109.62 -1.52 109.51 -1.2 109.51 -0.86C109.51 -0.51 109.64 -0.25 109.9 -0.09C110.02 -0.01 110.15 0.05 110.28 0.09C110.42 0.12 110.59 0.14 110.8 0.14C111.01 0.14 111.26 0.06 111.54 -0.1C111.82 -0.26 112.05 -0.45 112.23 -0.69C112.41 -0.45 112.56 -0.26 112.67 -0.14C112.76 -0.03 112.9 0.09 113.1 0.22C113.12 0.22 113.36 0.07 113.83 -0.21C113.94 -0.28 113.99 -0.34 113.99 -0.39C113.99 -0.44 113.95 -0.47 113.88 -0.5C113.6 -0.57 113.39 -0.69 113.25 -0.84C113.11 -1 113.03 -1.28 113.03 -1.68L113.03 -4.11C113.03 -4.29 113 -4.44 112.94 -4.58C112.76 -4.96 112.41 -5.15 111.89 -5.15C110.96 -5.15 110.31 -4.89 109.92 -4.39C109.71 -4.12 109.61 -3.89 109.61 -3.69C109.61 -3.38 109.71 -3.22 109.91 -3.22ZM110.42 -1.19C110.42 -1.51 110.56 -1.81 110.86 -2.07C111.18 -2.34 111.6 -2.48 112.12 -2.48L112.12 -1.27C112.12 -1.13 112.09 -1.01 112.02 -0.9C111.97 -0.83 111.92 -0.78 111.85 -0.73C111.79 -0.68 111.7 -0.64 111.59 -0.61C111.47 -0.57 111.31 -0.56 111.11 -0.56C110.9 -0.56 110.73 -0.62 110.61 -0.74C110.48 -0.87 110.42 -1.02 110.42 -1.19Z M116.73 -6.08L117.2 -6.08L118.32 -8.19L117.41 -8.19ZM115.75 -4.89L115.76 -4.5C116.12 -4.57 116.34 -4.6 116.44 -4.6C116.54 -4.6 116.6 -4.57 116.63 -4.52C116.65 -4.46 116.67 -4.35 116.67 -4.19L116.67 -0.71C116.67 -0.61 116.64 -0.53 116.57 -0.47C116.53 -0.43 116.31 -0.42 115.92 -0.42L115.8 -0.42L115.8 0L118.62 0L118.62 -0.42L118.39 -0.42C118.02 -0.42 117.79 -0.44 117.69 -0.48C117.62 -0.51 117.58 -0.6 117.58 -0.77L117.58 -5.28C117 -5.12 116.39 -4.99 115.75 -4.89Z M120.55 -3.2C120.48 -2.93 120.45 -2.62 120.45 -2.29C120.45 -1.96 120.5 -1.64 120.6 -1.33C120.91 -0.33 121.68 0.17 122.89 0.17C123.41 0.17 123.9 0.04 124.38 -0.22C124.58 -0.32 124.74 -0.43 124.86 -0.54C124.99 -0.65 125.05 -0.74 125.05 -0.81C125.05 -0.89 125.02 -0.92 124.95 -0.92C124.91 -0.92 124.85 -0.91 124.77 -0.87C124.68 -0.84 124.59 -0.81 124.49 -0.77C124.38 -0.73 124.22 -0.69 124 -0.66C123.79 -0.63 123.52 -0.61 123.2 -0.61C122.88 -0.61 122.57 -0.7 122.26 -0.89C122.09 -0.99 121.94 -1.11 121.81 -1.26C121.68 -1.42 121.58 -1.61 121.5 -1.86C121.41 -2.1 121.37 -2.39 121.37 -2.72C121.37 -3.05 121.42 -3.37 121.52 -3.69C121.58 -3.88 121.66 -4.05 121.74 -4.19C121.83 -4.34 121.95 -4.46 122.1 -4.55C122.25 -4.65 122.42 -4.69 122.61 -4.69C122.81 -4.69 123.02 -4.61 123.24 -4.44C123.34 -4.37 123.43 -4.29 123.52 -4.22C123.61 -4.15 123.7 -4.09 123.79 -4.04C123.88 -3.99 123.97 -3.96 124.05 -3.96C124.13 -3.96 124.27 -3.99 124.47 -4.06C124.57 -4.09 124.65 -4.13 124.73 -4.18C124.8 -4.23 124.83 -4.29 124.83 -4.35C124.83 -4.4 124.79 -4.48 124.69 -4.57C124.24 -5 123.63 -5.21 122.84 -5.21C122.23 -5.21 121.73 -5.01 121.32 -4.61C121.13 -4.43 120.97 -4.22 120.84 -3.97C120.71 -3.73 120.61 -3.47 120.55 -3.2Z M127.91 -2.94L131.18 -3.33C131.21 -3.33 131.26 -3.35 131.31 -3.38C131.36 -3.41 131.38 -3.46 131.38 -3.52C131.38 -3.75 131.26 -4.01 131.03 -4.3C130.56 -4.89 129.96 -5.19 129.22 -5.19C128.57 -5.19 128.03 -4.93 127.59 -4.42C127.15 -3.9 126.92 -3.22 126.92 -2.38C126.92 -1.63 127.15 -1.01 127.6 -0.52C128.02 -0.06 128.59 0.17 129.3 0.17C129.83 0.17 130.31 0.03 130.74 -0.23C130.93 -0.35 131.09 -0.47 131.24 -0.59C131.38 -0.72 131.49 -0.83 131.56 -0.94C131.63 -1.04 131.67 -1.13 131.67 -1.21C131.67 -1.29 131.63 -1.33 131.55 -1.33C131.51 -1.33 131.37 -1.25 131.14 -1.11C131.04 -1.05 130.94 -0.99 130.82 -0.93C130.7 -0.87 130.55 -0.82 130.37 -0.78C130.2 -0.74 129.99 -0.71 129.76 -0.71C129.53 -0.71 129.3 -0.76 129.06 -0.85C128.29 -1.15 127.9 -1.79 127.9 -2.75ZM127.94 -3.39C128.01 -3.81 128.15 -4.14 128.37 -4.38C128.58 -4.62 128.81 -4.74 129.03 -4.74C129.26 -4.74 129.46 -4.68 129.62 -4.54C129.69 -4.48 129.78 -4.37 129.91 -4.21C130.03 -4.05 130.12 -3.87 130.17 -3.68Z M134.16 0.17C134.16 0.06 134.2 0 134.28 0C134.3 0 134.44 0.03 134.71 0.08C134.98 0.14 135.26 0.17 135.55 0.17C136.11 0.17 136.53 0.02 136.82 -0.28C136.96 -0.42 137.06 -0.57 137.14 -0.75C137.21 -0.92 137.24 -1.12 137.24 -1.33C137.24 -1.54 137.19 -1.73 137.08 -1.9C137.02 -2 136.95 -2.1 136.85 -2.22C136.75 -2.33 136.5 -2.53 136.1 -2.8L135.52 -3.19C135.41 -3.25 135.34 -3.31 135.29 -3.35C135.28 -3.36 135.24 -3.38 135.19 -3.42C135.14 -3.46 135.11 -3.48 135.09 -3.5C135.08 -3.51 135.05 -3.53 135.01 -3.57C134.97 -3.61 134.95 -3.64 134.94 -3.66C134.93 -3.68 134.9 -3.72 134.86 -3.78C134.82 -3.83 134.8 -3.93 134.8 -4.06C134.8 -4.23 134.88 -4.37 135.03 -4.5C135.18 -4.62 135.34 -4.68 135.51 -4.68C135.68 -4.68 135.84 -4.67 135.98 -4.63C136.36 -4.55 136.62 -4.43 136.76 -4.25L136.78 -3.33L137.19 -3.33L137.19 -5.29L136.78 -5.3C136.78 -5.04 136.74 -4.91 136.68 -4.91C136.64 -4.91 136.57 -4.93 136.47 -4.97C136.37 -5.01 136.24 -5.05 136.07 -5.09C135.9 -5.13 135.69 -5.15 135.45 -5.15C135.21 -5.15 134.97 -5.09 134.72 -4.97C134.48 -4.85 134.29 -4.69 134.15 -4.49C134.01 -4.29 133.94 -4.08 133.94 -3.85C133.94 -3.31 134.27 -2.83 134.92 -2.41L135.39 -2.09C135.61 -1.95 135.78 -1.82 135.91 -1.72C135.99 -1.64 136.06 -1.57 136.11 -1.51C136.16 -1.44 136.2 -1.37 136.23 -1.28C136.26 -1.2 136.28 -1.08 136.28 -0.95C136.28 -0.81 136.22 -0.67 136.1 -0.52C136.04 -0.44 135.97 -0.38 135.87 -0.34C135.77 -0.3 135.65 -0.27 135.52 -0.27C135.39 -0.27 135.18 -0.31 134.91 -0.37C134.63 -0.44 134.36 -0.58 134.1 -0.78L133.97 -1.86L133.56 -1.83L133.8 0.32L134.18 0.3Z"/></g><rect id="SvgjsRect1506" width="16.524999999999977" height="1" fill="#303030" transform="translate(173.41500000000002, 98.61407101197983)" light-content="false"/></g></svg>